G04 #@! TF.GenerationSoftware,KiCad,Pcbnew,(5.1.5)-3*
G04 #@! TF.CreationDate,2020-04-27T02:41:32-07:00*
G04 #@! TF.ProjectId,SolaRCharger,536f6c61-5243-4686-9172-6765722e6b69,rev?*
G04 #@! TF.SameCoordinates,Original*
G04 #@! TF.FileFunction,Legend,Top*
G04 #@! TF.FilePolarity,Positive*
%FSLAX46Y46*%
G04 Gerber Fmt 4.6, Leading zero omitted, Abs format (unit mm)*
G04 Created by KiCad (PCBNEW (5.1.5)-3) date 2020-04-27 02:41:32*
%MOMM*%
%LPD*%
G04 APERTURE LIST*
%ADD10C,0.150000*%
%ADD11C,0.120000*%
%ADD12C,0.152400*%
G04 APERTURE END LIST*
D10*
X82979047Y-131580000D02*
X83455238Y-131580000D01*
X83407619Y-131437142D02*
X84264761Y-132722857D01*
X84169523Y-132627619D02*
X84931428Y-132627619D01*
X85455238Y-132913333D02*
X85407619Y-132865714D01*
X85312380Y-132722857D01*
X85264761Y-132627619D01*
X85217142Y-132484761D01*
X85169523Y-132246666D01*
X85169523Y-132056190D01*
X85217142Y-131818095D01*
X85264761Y-131675238D01*
X85312380Y-131580000D01*
X85407619Y-131437142D01*
X85455238Y-131389523D01*
X85883809Y-132484761D02*
X85883809Y-132532380D01*
X85836190Y-132627619D01*
X85788571Y-132675238D01*
X85836190Y-131913333D02*
X85883809Y-131960952D01*
X85836190Y-132008571D01*
X85788571Y-131960952D01*
X85836190Y-131913333D01*
X85836190Y-132008571D01*
X86217142Y-132865714D02*
X86455238Y-132865714D01*
X86455238Y-131437142D01*
X86217142Y-131437142D01*
X86883809Y-132913333D02*
X86931428Y-132865714D01*
X87026666Y-132722857D01*
X87074285Y-132627619D01*
X87121904Y-132484761D01*
X87169523Y-132246666D01*
X87169523Y-132056190D01*
X87121904Y-131818095D01*
X87074285Y-131675238D01*
X87026666Y-131580000D01*
X86931428Y-131437142D01*
X86883809Y-131389523D01*
X87407619Y-132627619D02*
X88169523Y-132627619D01*
X89121904Y-131484761D02*
X88264761Y-132770476D01*
X89264761Y-131580000D02*
X89740952Y-131580000D01*
X65779047Y-132152380D02*
X65779047Y-131152380D01*
X66017142Y-131152380D01*
X66160000Y-131200000D01*
X66255238Y-131295238D01*
X66302857Y-131390476D01*
X66350476Y-131580952D01*
X66350476Y-131723809D01*
X66302857Y-131914285D01*
X66255238Y-132009523D01*
X66160000Y-132104761D01*
X66017142Y-132152380D01*
X65779047Y-132152380D01*
X66921904Y-132152380D02*
X66826666Y-132104761D01*
X66779047Y-132057142D01*
X66731428Y-131961904D01*
X66731428Y-131676190D01*
X66779047Y-131580952D01*
X66826666Y-131533333D01*
X66921904Y-131485714D01*
X67064761Y-131485714D01*
X67160000Y-131533333D01*
X67207619Y-131580952D01*
X67255238Y-131676190D01*
X67255238Y-131961904D01*
X67207619Y-132057142D01*
X67160000Y-132104761D01*
X67064761Y-132152380D01*
X66921904Y-132152380D01*
X67683809Y-132152380D02*
X67683809Y-131485714D01*
X67683809Y-131580952D02*
X67731428Y-131533333D01*
X67826666Y-131485714D01*
X67969523Y-131485714D01*
X68064761Y-131533333D01*
X68112380Y-131628571D01*
X68112380Y-132152380D01*
X68112380Y-131628571D02*
X68160000Y-131533333D01*
X68255238Y-131485714D01*
X68398095Y-131485714D01*
X68493333Y-131533333D01*
X68540952Y-131628571D01*
X68540952Y-132152380D01*
X69017142Y-132152380D02*
X69017142Y-131485714D01*
X69017142Y-131152380D02*
X68969523Y-131200000D01*
X69017142Y-131247619D01*
X69064761Y-131200000D01*
X69017142Y-131152380D01*
X69017142Y-131247619D01*
X69493333Y-131485714D02*
X69493333Y-132152380D01*
X69493333Y-131580952D02*
X69540952Y-131533333D01*
X69636190Y-131485714D01*
X69779047Y-131485714D01*
X69874285Y-131533333D01*
X69921904Y-131628571D01*
X69921904Y-132152380D01*
X70398095Y-132152380D02*
X70398095Y-131485714D01*
X70398095Y-131152380D02*
X70350476Y-131200000D01*
X70398095Y-131247619D01*
X70445714Y-131200000D01*
X70398095Y-131152380D01*
X70398095Y-131247619D01*
X71302857Y-132104761D02*
X71207619Y-132152380D01*
X71017142Y-132152380D01*
X70921904Y-132104761D01*
X70874285Y-132057142D01*
X70826666Y-131961904D01*
X70826666Y-131676190D01*
X70874285Y-131580952D01*
X70921904Y-131533333D01*
X71017142Y-131485714D01*
X71207619Y-131485714D01*
X71302857Y-131533333D01*
X71731428Y-132152380D02*
X71731428Y-131152380D01*
X71826666Y-131771428D02*
X72112380Y-132152380D01*
X72112380Y-131485714D02*
X71731428Y-131866666D01*
X73874285Y-132057142D02*
X73826666Y-132104761D01*
X73683809Y-132152380D01*
X73588571Y-132152380D01*
X73445714Y-132104761D01*
X73350476Y-132009523D01*
X73302857Y-131914285D01*
X73255238Y-131723809D01*
X73255238Y-131580952D01*
X73302857Y-131390476D01*
X73350476Y-131295238D01*
X73445714Y-131200000D01*
X73588571Y-131152380D01*
X73683809Y-131152380D01*
X73826666Y-131200000D01*
X73874285Y-131247619D01*
X74302857Y-132152380D02*
X74302857Y-131152380D01*
X74731428Y-132152380D02*
X74731428Y-131628571D01*
X74683809Y-131533333D01*
X74588571Y-131485714D01*
X74445714Y-131485714D01*
X74350476Y-131533333D01*
X74302857Y-131580952D01*
X75207619Y-132152380D02*
X75207619Y-131485714D01*
X75207619Y-131676190D02*
X75255238Y-131580952D01*
X75302857Y-131533333D01*
X75398095Y-131485714D01*
X75493333Y-131485714D01*
X75826666Y-132152380D02*
X75826666Y-131485714D01*
X75826666Y-131152380D02*
X75779047Y-131200000D01*
X75826666Y-131247619D01*
X75874285Y-131200000D01*
X75826666Y-131152380D01*
X75826666Y-131247619D01*
X76255238Y-132104761D02*
X76350476Y-132152380D01*
X76540952Y-132152380D01*
X76636190Y-132104761D01*
X76683809Y-132009523D01*
X76683809Y-131961904D01*
X76636190Y-131866666D01*
X76540952Y-131819047D01*
X76398095Y-131819047D01*
X76302857Y-131771428D01*
X76255238Y-131676190D01*
X76255238Y-131628571D01*
X76302857Y-131533333D01*
X76398095Y-131485714D01*
X76540952Y-131485714D01*
X76636190Y-131533333D01*
X76969523Y-131485714D02*
X77350476Y-131485714D01*
X77112380Y-131152380D02*
X77112380Y-132009523D01*
X77160000Y-132104761D01*
X77255238Y-132152380D01*
X77350476Y-132152380D01*
X78064761Y-132104761D02*
X77969523Y-132152380D01*
X77779047Y-132152380D01*
X77683809Y-132104761D01*
X77636190Y-132009523D01*
X77636190Y-131628571D01*
X77683809Y-131533333D01*
X77779047Y-131485714D01*
X77969523Y-131485714D01*
X78064761Y-131533333D01*
X78112380Y-131628571D01*
X78112380Y-131723809D01*
X77636190Y-131819047D01*
X78540952Y-131485714D02*
X78540952Y-132152380D01*
X78540952Y-131580952D02*
X78588571Y-131533333D01*
X78683809Y-131485714D01*
X78826666Y-131485714D01*
X78921904Y-131533333D01*
X78969523Y-131628571D01*
X78969523Y-132152380D01*
X79398095Y-132104761D02*
X79493333Y-132152380D01*
X79683809Y-132152380D01*
X79779047Y-132104761D01*
X79826666Y-132009523D01*
X79826666Y-131961904D01*
X79779047Y-131866666D01*
X79683809Y-131819047D01*
X79540952Y-131819047D01*
X79445714Y-131771428D01*
X79398095Y-131676190D01*
X79398095Y-131628571D01*
X79445714Y-131533333D01*
X79540952Y-131485714D01*
X79683809Y-131485714D01*
X79779047Y-131533333D01*
X80636190Y-132104761D02*
X80540952Y-132152380D01*
X80350476Y-132152380D01*
X80255238Y-132104761D01*
X80207619Y-132009523D01*
X80207619Y-131628571D01*
X80255238Y-131533333D01*
X80350476Y-131485714D01*
X80540952Y-131485714D01*
X80636190Y-131533333D01*
X80683809Y-131628571D01*
X80683809Y-131723809D01*
X80207619Y-131819047D01*
X81112380Y-131485714D02*
X81112380Y-132152380D01*
X81112380Y-131580952D02*
X81160000Y-131533333D01*
X81255238Y-131485714D01*
X81398095Y-131485714D01*
X81493333Y-131533333D01*
X81540952Y-131628571D01*
X81540952Y-132152380D01*
X70493333Y-133278571D02*
X70826666Y-133278571D01*
X70969523Y-133802380D02*
X70493333Y-133802380D01*
X70493333Y-132802380D01*
X70969523Y-132802380D01*
X71398095Y-133802380D02*
X71398095Y-132802380D01*
X71969523Y-133802380D01*
X71969523Y-132802380D01*
X72969523Y-132850000D02*
X72874285Y-132802380D01*
X72731428Y-132802380D01*
X72588571Y-132850000D01*
X72493333Y-132945238D01*
X72445714Y-133040476D01*
X72398095Y-133230952D01*
X72398095Y-133373809D01*
X72445714Y-133564285D01*
X72493333Y-133659523D01*
X72588571Y-133754761D01*
X72731428Y-133802380D01*
X72826666Y-133802380D01*
X72969523Y-133754761D01*
X73017142Y-133707142D01*
X73017142Y-133373809D01*
X72826666Y-133373809D01*
X74017142Y-133802380D02*
X73683809Y-133326190D01*
X73445714Y-133802380D02*
X73445714Y-132802380D01*
X73826666Y-132802380D01*
X73921904Y-132850000D01*
X73969523Y-132897619D01*
X74017142Y-132992857D01*
X74017142Y-133135714D01*
X73969523Y-133230952D01*
X73921904Y-133278571D01*
X73826666Y-133326190D01*
X73445714Y-133326190D01*
X74874285Y-133135714D02*
X74874285Y-133802380D01*
X74636190Y-132754761D02*
X74398095Y-133469047D01*
X75017142Y-133469047D01*
X75826666Y-132802380D02*
X75636190Y-132802380D01*
X75540952Y-132850000D01*
X75493333Y-132897619D01*
X75398095Y-133040476D01*
X75350476Y-133230952D01*
X75350476Y-133611904D01*
X75398095Y-133707142D01*
X75445714Y-133754761D01*
X75540952Y-133802380D01*
X75731428Y-133802380D01*
X75826666Y-133754761D01*
X75874285Y-133707142D01*
X75921904Y-133611904D01*
X75921904Y-133373809D01*
X75874285Y-133278571D01*
X75826666Y-133230952D01*
X75731428Y-133183333D01*
X75540952Y-133183333D01*
X75445714Y-133230952D01*
X75398095Y-133278571D01*
X75350476Y-133373809D01*
X76540952Y-132802380D02*
X76636190Y-132802380D01*
X76731428Y-132850000D01*
X76779047Y-132897619D01*
X76826666Y-132992857D01*
X76874285Y-133183333D01*
X76874285Y-133421428D01*
X76826666Y-133611904D01*
X76779047Y-133707142D01*
X76731428Y-133754761D01*
X76636190Y-133802380D01*
X76540952Y-133802380D01*
X76445714Y-133754761D01*
X76398095Y-133707142D01*
X76350476Y-133611904D01*
X76302857Y-133421428D01*
X76302857Y-133183333D01*
X76350476Y-132992857D01*
X76398095Y-132897619D01*
X76445714Y-132850000D01*
X76540952Y-132802380D01*
X68612380Y-135404761D02*
X68755238Y-135452380D01*
X68993333Y-135452380D01*
X69088571Y-135404761D01*
X69136190Y-135357142D01*
X69183809Y-135261904D01*
X69183809Y-135166666D01*
X69136190Y-135071428D01*
X69088571Y-135023809D01*
X68993333Y-134976190D01*
X68802857Y-134928571D01*
X68707619Y-134880952D01*
X68660000Y-134833333D01*
X68612380Y-134738095D01*
X68612380Y-134642857D01*
X68660000Y-134547619D01*
X68707619Y-134500000D01*
X68802857Y-134452380D01*
X69040952Y-134452380D01*
X69183809Y-134500000D01*
X69755238Y-135452380D02*
X69660000Y-135404761D01*
X69612380Y-135357142D01*
X69564761Y-135261904D01*
X69564761Y-134976190D01*
X69612380Y-134880952D01*
X69660000Y-134833333D01*
X69755238Y-134785714D01*
X69898095Y-134785714D01*
X69993333Y-134833333D01*
X70040952Y-134880952D01*
X70088571Y-134976190D01*
X70088571Y-135261904D01*
X70040952Y-135357142D01*
X69993333Y-135404761D01*
X69898095Y-135452380D01*
X69755238Y-135452380D01*
X70660000Y-135452380D02*
X70564761Y-135404761D01*
X70517142Y-135309523D01*
X70517142Y-134452380D01*
X71469523Y-135452380D02*
X71469523Y-134928571D01*
X71421904Y-134833333D01*
X71326666Y-134785714D01*
X71136190Y-134785714D01*
X71040952Y-134833333D01*
X71469523Y-135404761D02*
X71374285Y-135452380D01*
X71136190Y-135452380D01*
X71040952Y-135404761D01*
X70993333Y-135309523D01*
X70993333Y-135214285D01*
X71040952Y-135119047D01*
X71136190Y-135071428D01*
X71374285Y-135071428D01*
X71469523Y-135023809D01*
X71945714Y-135452380D02*
X71945714Y-134785714D01*
X71945714Y-134976190D02*
X71993333Y-134880952D01*
X72040952Y-134833333D01*
X72136190Y-134785714D01*
X72231428Y-134785714D01*
X73898095Y-135357142D02*
X73850476Y-135404761D01*
X73707619Y-135452380D01*
X73612380Y-135452380D01*
X73469523Y-135404761D01*
X73374285Y-135309523D01*
X73326666Y-135214285D01*
X73279047Y-135023809D01*
X73279047Y-134880952D01*
X73326666Y-134690476D01*
X73374285Y-134595238D01*
X73469523Y-134500000D01*
X73612380Y-134452380D01*
X73707619Y-134452380D01*
X73850476Y-134500000D01*
X73898095Y-134547619D01*
X74326666Y-135452380D02*
X74326666Y-134452380D01*
X74755238Y-135452380D02*
X74755238Y-134928571D01*
X74707619Y-134833333D01*
X74612380Y-134785714D01*
X74469523Y-134785714D01*
X74374285Y-134833333D01*
X74326666Y-134880952D01*
X75660000Y-135452380D02*
X75660000Y-134928571D01*
X75612380Y-134833333D01*
X75517142Y-134785714D01*
X75326666Y-134785714D01*
X75231428Y-134833333D01*
X75660000Y-135404761D02*
X75564761Y-135452380D01*
X75326666Y-135452380D01*
X75231428Y-135404761D01*
X75183809Y-135309523D01*
X75183809Y-135214285D01*
X75231428Y-135119047D01*
X75326666Y-135071428D01*
X75564761Y-135071428D01*
X75660000Y-135023809D01*
X76136190Y-135452380D02*
X76136190Y-134785714D01*
X76136190Y-134976190D02*
X76183809Y-134880952D01*
X76231428Y-134833333D01*
X76326666Y-134785714D01*
X76421904Y-134785714D01*
X77183809Y-134785714D02*
X77183809Y-135595238D01*
X77136190Y-135690476D01*
X77088571Y-135738095D01*
X76993333Y-135785714D01*
X76850476Y-135785714D01*
X76755238Y-135738095D01*
X77183809Y-135404761D02*
X77088571Y-135452380D01*
X76898095Y-135452380D01*
X76802857Y-135404761D01*
X76755238Y-135357142D01*
X76707619Y-135261904D01*
X76707619Y-134976190D01*
X76755238Y-134880952D01*
X76802857Y-134833333D01*
X76898095Y-134785714D01*
X77088571Y-134785714D01*
X77183809Y-134833333D01*
X78040952Y-135404761D02*
X77945714Y-135452380D01*
X77755238Y-135452380D01*
X77660000Y-135404761D01*
X77612380Y-135309523D01*
X77612380Y-134928571D01*
X77660000Y-134833333D01*
X77755238Y-134785714D01*
X77945714Y-134785714D01*
X78040952Y-134833333D01*
X78088571Y-134928571D01*
X78088571Y-135023809D01*
X77612380Y-135119047D01*
X78517142Y-135452380D02*
X78517142Y-134785714D01*
X78517142Y-134976190D02*
X78564761Y-134880952D01*
X78612380Y-134833333D01*
X78707619Y-134785714D01*
X78802857Y-134785714D01*
D11*
X129670000Y-116590000D02*
X132210000Y-114050000D01*
X129670000Y-128020000D02*
X129670000Y-116590000D01*
X128020000Y-129670000D02*
X129670000Y-128020000D01*
X63370000Y-129670000D02*
X128020000Y-129670000D01*
X63370000Y-120140000D02*
X63370000Y-129670000D01*
X57020000Y-120140000D02*
X63370000Y-120140000D01*
X57020000Y-108460000D02*
X57020000Y-120140000D01*
X63370000Y-108460000D02*
X57020000Y-108460000D01*
X63370000Y-88390000D02*
X63370000Y-108460000D01*
X61470000Y-88390000D02*
X63370000Y-88390000D01*
X61470000Y-79250000D02*
X61470000Y-88390000D01*
X63370000Y-79250000D02*
X61470000Y-79250000D01*
X63370000Y-76070000D02*
X63370000Y-79250000D01*
X129670000Y-76070000D02*
X63370000Y-76070000D01*
X129670000Y-78740000D02*
X129670000Y-76070000D01*
X132210000Y-81280000D02*
X129670000Y-78740000D01*
X132210000Y-114050000D02*
X132210000Y-81280000D01*
X157210000Y-91470000D02*
X155210000Y-91470000D01*
X161320000Y-78060000D02*
X161320000Y-81120000D01*
X151100000Y-78060000D02*
X161320000Y-78060000D01*
X151100000Y-81120000D02*
X151100000Y-78060000D01*
X151100000Y-91280000D02*
X151100000Y-85220000D01*
X153910000Y-91280000D02*
X151100000Y-91280000D01*
X161320000Y-91280000D02*
X158510000Y-91280000D01*
X161320000Y-85220000D02*
X161320000Y-91280000D01*
D12*
X142887700Y-133350000D02*
G75*
G03X142887700Y-133350000I-203200J0D01*
G01*
X144462500Y-130365500D02*
X144462500Y-135318500D01*
X155257500Y-130365500D02*
X144462500Y-130365500D01*
X155257500Y-135318500D02*
X155257500Y-130365500D01*
X144462500Y-135318500D02*
X155257500Y-135318500D01*
D11*
X138430000Y-100310000D02*
X134980000Y-100310000D01*
X138430000Y-100310000D02*
X140380000Y-100310000D01*
X138430000Y-105430000D02*
X136480000Y-105430000D01*
X138430000Y-105430000D02*
X140380000Y-105430000D01*
D12*
X116054200Y-134620000D02*
G75*
G03X116054200Y-134620000I-127000J0D01*
G01*
X117705200Y-132168900D02*
X117705200Y-137071100D01*
X128474800Y-132168900D02*
X117705200Y-132168900D01*
X128474800Y-137071100D02*
X128474800Y-132168900D01*
X117705200Y-137071100D02*
X128474800Y-137071100D01*
D11*
X141800000Y-121890000D02*
X141800000Y-124020000D01*
X141800000Y-117279000D02*
X141800000Y-119410000D01*
X135060000Y-119741000D02*
X135060000Y-121560000D01*
X135596000Y-124020000D02*
X141800000Y-124020000D01*
X135596000Y-117279000D02*
X141800000Y-117279000D01*
X139108922Y-141680000D02*
X139626078Y-141680000D01*
X139108922Y-140260000D02*
X139626078Y-140260000D01*
X148663922Y-127710000D02*
X149181078Y-127710000D01*
X148663922Y-126290000D02*
X149181078Y-126290000D01*
X102160000Y-132153922D02*
X102160000Y-132671078D01*
X103580000Y-132153922D02*
X103580000Y-132671078D01*
X142313922Y-127710000D02*
X142831078Y-127710000D01*
X142313922Y-126290000D02*
X142831078Y-126290000D01*
X138462150Y-134932544D02*
G75*
G03X137472331Y-135922281I-2572150J1582544D01*
G01*
X139374448Y-135844499D02*
X138462281Y-134932331D01*
X138384499Y-136834448D02*
X139374448Y-135844499D01*
X137472331Y-135922281D02*
X138384499Y-136834448D01*
X154940000Y-137160000D02*
X154940000Y-138430000D01*
X153670000Y-137160000D02*
X154940000Y-137160000D01*
X153290000Y-139540000D02*
X153290000Y-139870000D01*
X154050000Y-139540000D02*
X154050000Y-139870000D01*
X153390000Y-142530000D02*
X153390000Y-148530000D01*
X153510000Y-142530000D02*
X153510000Y-148530000D01*
X153630000Y-142530000D02*
X153630000Y-148530000D01*
X153750000Y-142530000D02*
X153750000Y-148530000D01*
X153870000Y-142530000D02*
X153870000Y-148530000D01*
X153990000Y-142530000D02*
X153990000Y-148530000D01*
X153290000Y-148530000D02*
X153290000Y-142530000D01*
X154050000Y-148530000D02*
X153290000Y-148530000D01*
X154050000Y-142530000D02*
X154050000Y-148530000D01*
X155000000Y-142530000D02*
X155000000Y-139870000D01*
X152340000Y-142530000D02*
X155000000Y-142530000D01*
X152340000Y-139870000D02*
X152340000Y-142530000D01*
X155000000Y-139870000D02*
X152340000Y-139870000D01*
X143670000Y-75805000D02*
X144270000Y-75805000D01*
X136360000Y-77315000D02*
X135680000Y-77315000D01*
X134910000Y-82055000D02*
X134910000Y-81655000D01*
X147030000Y-82055000D02*
X147030000Y-81655000D01*
X145580000Y-77315000D02*
X146260000Y-77315000D01*
X160020000Y-137160000D02*
X160020000Y-138430000D01*
X158750000Y-137160000D02*
X160020000Y-137160000D01*
X158370000Y-139540000D02*
X158370000Y-139870000D01*
X159130000Y-139540000D02*
X159130000Y-139870000D01*
X158470000Y-142530000D02*
X158470000Y-148530000D01*
X158590000Y-142530000D02*
X158590000Y-148530000D01*
X158710000Y-142530000D02*
X158710000Y-148530000D01*
X158830000Y-142530000D02*
X158830000Y-148530000D01*
X158950000Y-142530000D02*
X158950000Y-148530000D01*
X159070000Y-142530000D02*
X159070000Y-148530000D01*
X158370000Y-148530000D02*
X158370000Y-142530000D01*
X159130000Y-148530000D02*
X158370000Y-148530000D01*
X159130000Y-142530000D02*
X159130000Y-148530000D01*
X160080000Y-142530000D02*
X160080000Y-139870000D01*
X157420000Y-142530000D02*
X160080000Y-142530000D01*
X157420000Y-139870000D02*
X157420000Y-142530000D01*
X160080000Y-139870000D02*
X157420000Y-139870000D01*
X157790000Y-131332500D02*
X157790000Y-134017500D01*
X159710000Y-131332500D02*
X157790000Y-131332500D01*
X159710000Y-134017500D02*
X159710000Y-131332500D01*
X159460000Y-128196078D02*
X159460000Y-127678922D01*
X158040000Y-128196078D02*
X158040000Y-127678922D01*
X152522500Y-116487500D02*
X152522500Y-116862500D01*
X152335000Y-116675000D02*
X152710000Y-116675000D01*
X153139437Y-119170000D02*
X153839437Y-119870000D01*
X153139437Y-117050000D02*
X153839437Y-116350000D01*
X153839437Y-119870000D02*
X156470000Y-119870000D01*
X153839437Y-116350000D02*
X156470000Y-116350000D01*
X156470000Y-116350000D02*
X156470000Y-117050000D01*
X156470000Y-119870000D02*
X156470000Y-119170000D01*
D10*
X91995714Y-75096666D02*
X92471904Y-75096666D01*
X91900476Y-75382380D02*
X92233809Y-74382380D01*
X92567142Y-75382380D01*
X93424285Y-75382380D02*
X92852857Y-75382380D01*
X93138571Y-75382380D02*
X93138571Y-74382380D01*
X93043333Y-74525238D01*
X92948095Y-74620476D01*
X92852857Y-74668095D01*
X155876666Y-91922380D02*
X155876666Y-92636666D01*
X155829047Y-92779523D01*
X155733809Y-92874761D01*
X155590952Y-92922380D01*
X155495714Y-92922380D01*
X156876666Y-92922380D02*
X156305238Y-92922380D01*
X156590952Y-92922380D02*
X156590952Y-91922380D01*
X156495714Y-92065238D01*
X156400476Y-92160476D01*
X156305238Y-92208095D01*
X149098095Y-132294380D02*
X149098095Y-133103904D01*
X149145714Y-133199142D01*
X149193333Y-133246761D01*
X149288571Y-133294380D01*
X149479047Y-133294380D01*
X149574285Y-133246761D01*
X149621904Y-133199142D01*
X149669523Y-133103904D01*
X149669523Y-132294380D01*
X150050476Y-132294380D02*
X150669523Y-132294380D01*
X150336190Y-132675333D01*
X150479047Y-132675333D01*
X150574285Y-132722952D01*
X150621904Y-132770571D01*
X150669523Y-132865809D01*
X150669523Y-133103904D01*
X150621904Y-133199142D01*
X150574285Y-133246761D01*
X150479047Y-133294380D01*
X150193333Y-133294380D01*
X150098095Y-133246761D01*
X150050476Y-133199142D01*
X145360000Y-133294380D02*
X144883809Y-133294380D01*
X144883809Y-132294380D01*
X145693333Y-133294380D02*
X145693333Y-132294380D01*
X146026666Y-133008666D01*
X146360000Y-132294380D01*
X146360000Y-133294380D01*
X146740952Y-132294380D02*
X147360000Y-132294380D01*
X147026666Y-132675333D01*
X147169523Y-132675333D01*
X147264761Y-132722952D01*
X147312380Y-132770571D01*
X147360000Y-132865809D01*
X147360000Y-133103904D01*
X147312380Y-133199142D01*
X147264761Y-133246761D01*
X147169523Y-133294380D01*
X146883809Y-133294380D01*
X146788571Y-133246761D01*
X146740952Y-133199142D01*
X147693333Y-132294380D02*
X148312380Y-132294380D01*
X147979047Y-132675333D01*
X148121904Y-132675333D01*
X148217142Y-132722952D01*
X148264761Y-132770571D01*
X148312380Y-132865809D01*
X148312380Y-133103904D01*
X148264761Y-133199142D01*
X148217142Y-133246761D01*
X148121904Y-133294380D01*
X147836190Y-133294380D01*
X147740952Y-133246761D01*
X147693333Y-133199142D01*
X148883809Y-132722952D02*
X148788571Y-132675333D01*
X148740952Y-132627714D01*
X148693333Y-132532476D01*
X148693333Y-132484857D01*
X148740952Y-132389619D01*
X148788571Y-132342000D01*
X148883809Y-132294380D01*
X149074285Y-132294380D01*
X149169523Y-132342000D01*
X149217142Y-132389619D01*
X149264761Y-132484857D01*
X149264761Y-132532476D01*
X149217142Y-132627714D01*
X149169523Y-132675333D01*
X149074285Y-132722952D01*
X148883809Y-132722952D01*
X148788571Y-132770571D01*
X148740952Y-132818190D01*
X148693333Y-132913428D01*
X148693333Y-133103904D01*
X148740952Y-133199142D01*
X148788571Y-133246761D01*
X148883809Y-133294380D01*
X149074285Y-133294380D01*
X149169523Y-133246761D01*
X149217142Y-133199142D01*
X149264761Y-133103904D01*
X149264761Y-132913428D01*
X149217142Y-132818190D01*
X149169523Y-132770571D01*
X149074285Y-132722952D01*
X149550476Y-132294380D02*
X150121904Y-132294380D01*
X149836190Y-133294380D02*
X149836190Y-132294380D01*
X150217142Y-133389619D02*
X150979047Y-133389619D01*
X151217142Y-133294380D02*
X151217142Y-132294380D01*
X151788571Y-133294380D01*
X151788571Y-132294380D01*
X152455238Y-132294380D02*
X152645714Y-132294380D01*
X152740952Y-132342000D01*
X152836190Y-132437238D01*
X152883809Y-132627714D01*
X152883809Y-132961047D01*
X152836190Y-133151523D01*
X152740952Y-133246761D01*
X152645714Y-133294380D01*
X152455238Y-133294380D01*
X152360000Y-133246761D01*
X152264761Y-133151523D01*
X152217142Y-132961047D01*
X152217142Y-132627714D01*
X152264761Y-132437238D01*
X152360000Y-132342000D01*
X152455238Y-132294380D01*
X153312380Y-133294380D02*
X153312380Y-132294380D01*
X153693333Y-132294380D01*
X153788571Y-132342000D01*
X153836190Y-132389619D01*
X153883809Y-132484857D01*
X153883809Y-132627714D01*
X153836190Y-132722952D01*
X153788571Y-132770571D01*
X153693333Y-132818190D01*
X153312380Y-132818190D01*
X154645714Y-132770571D02*
X154788571Y-132818190D01*
X154836190Y-132865809D01*
X154883809Y-132961047D01*
X154883809Y-133103904D01*
X154836190Y-133199142D01*
X154788571Y-133246761D01*
X154693333Y-133294380D01*
X154312380Y-133294380D01*
X154312380Y-132294380D01*
X154645714Y-132294380D01*
X154740952Y-132342000D01*
X154788571Y-132389619D01*
X154836190Y-132484857D01*
X154836190Y-132580095D01*
X154788571Y-132675333D01*
X154740952Y-132722952D01*
X154645714Y-132770571D01*
X154312380Y-132770571D01*
X147320000Y-132802380D02*
X147320000Y-133040476D01*
X147081904Y-132945238D02*
X147320000Y-133040476D01*
X147558095Y-132945238D01*
X147177142Y-133230952D02*
X147320000Y-133040476D01*
X147462857Y-133230952D01*
X137668095Y-98922380D02*
X137668095Y-99731904D01*
X137715714Y-99827142D01*
X137763333Y-99874761D01*
X137858571Y-99922380D01*
X138049047Y-99922380D01*
X138144285Y-99874761D01*
X138191904Y-99827142D01*
X138239523Y-99731904D01*
X138239523Y-98922380D01*
X138668095Y-99017619D02*
X138715714Y-98970000D01*
X138810952Y-98922380D01*
X139049047Y-98922380D01*
X139144285Y-98970000D01*
X139191904Y-99017619D01*
X139239523Y-99112857D01*
X139239523Y-99208095D01*
X139191904Y-99350952D01*
X138620476Y-99922380D01*
X139239523Y-99922380D01*
X122328095Y-134072380D02*
X122328095Y-134881904D01*
X122375714Y-134977142D01*
X122423333Y-135024761D01*
X122518571Y-135072380D01*
X122709047Y-135072380D01*
X122804285Y-135024761D01*
X122851904Y-134977142D01*
X122899523Y-134881904D01*
X122899523Y-134072380D01*
X123899523Y-135072380D02*
X123328095Y-135072380D01*
X123613809Y-135072380D02*
X123613809Y-134072380D01*
X123518571Y-134215238D01*
X123423333Y-134310476D01*
X123328095Y-134358095D01*
X119304285Y-135072380D02*
X119304285Y-134072380D01*
X120351904Y-135072380D02*
X120018571Y-134596190D01*
X119780476Y-135072380D02*
X119780476Y-134072380D01*
X120161428Y-134072380D01*
X120256666Y-134120000D01*
X120304285Y-134167619D01*
X120351904Y-134262857D01*
X120351904Y-134405714D01*
X120304285Y-134500952D01*
X120256666Y-134548571D01*
X120161428Y-134596190D01*
X119780476Y-134596190D01*
X121113809Y-134548571D02*
X120780476Y-134548571D01*
X120780476Y-135072380D02*
X120780476Y-134072380D01*
X121256666Y-134072380D01*
X122113809Y-134072380D02*
X121637619Y-134072380D01*
X121590000Y-134548571D01*
X121637619Y-134500952D01*
X121732857Y-134453333D01*
X121970952Y-134453333D01*
X122066190Y-134500952D01*
X122113809Y-134548571D01*
X122161428Y-134643809D01*
X122161428Y-134881904D01*
X122113809Y-134977142D01*
X122066190Y-135024761D01*
X121970952Y-135072380D01*
X121732857Y-135072380D01*
X121637619Y-135024761D01*
X121590000Y-134977142D01*
X123113809Y-135072380D02*
X122542380Y-135072380D01*
X122828095Y-135072380D02*
X122828095Y-134072380D01*
X122732857Y-134215238D01*
X122637619Y-134310476D01*
X122542380Y-134358095D01*
X123732857Y-134072380D02*
X123828095Y-134072380D01*
X123923333Y-134120000D01*
X123970952Y-134167619D01*
X124018571Y-134262857D01*
X124066190Y-134453333D01*
X124066190Y-134691428D01*
X124018571Y-134881904D01*
X123970952Y-134977142D01*
X123923333Y-135024761D01*
X123828095Y-135072380D01*
X123732857Y-135072380D01*
X123637619Y-135024761D01*
X123590000Y-134977142D01*
X123542380Y-134881904D01*
X123494761Y-134691428D01*
X123494761Y-134453333D01*
X123542380Y-134262857D01*
X123590000Y-134167619D01*
X123637619Y-134120000D01*
X123732857Y-134072380D01*
X124494761Y-135072380D02*
X124494761Y-134072380D01*
X124875714Y-134072380D01*
X124970952Y-134120000D01*
X125018571Y-134167619D01*
X125066190Y-134262857D01*
X125066190Y-134405714D01*
X125018571Y-134500952D01*
X124970952Y-134548571D01*
X124875714Y-134596190D01*
X124494761Y-134596190D01*
X125828095Y-134548571D02*
X125970952Y-134596190D01*
X126018571Y-134643809D01*
X126066190Y-134739047D01*
X126066190Y-134881904D01*
X126018571Y-134977142D01*
X125970952Y-135024761D01*
X125875714Y-135072380D01*
X125494761Y-135072380D01*
X125494761Y-134072380D01*
X125828095Y-134072380D01*
X125923333Y-134120000D01*
X125970952Y-134167619D01*
X126018571Y-134262857D01*
X126018571Y-134358095D01*
X125970952Y-134453333D01*
X125923333Y-134500952D01*
X125828095Y-134548571D01*
X125494761Y-134548571D01*
X126828095Y-134548571D02*
X126494761Y-134548571D01*
X126494761Y-135072380D02*
X126494761Y-134072380D01*
X126970952Y-134072380D01*
X125730000Y-134072380D02*
X125730000Y-134310476D01*
X125491904Y-134215238D02*
X125730000Y-134310476D01*
X125968095Y-134215238D01*
X125587142Y-134500952D02*
X125730000Y-134310476D01*
X125872857Y-134500952D01*
X137834761Y-116602380D02*
X137501428Y-116126190D01*
X137263333Y-116602380D02*
X137263333Y-115602380D01*
X137644285Y-115602380D01*
X137739523Y-115650000D01*
X137787142Y-115697619D01*
X137834761Y-115792857D01*
X137834761Y-115935714D01*
X137787142Y-116030952D01*
X137739523Y-116078571D01*
X137644285Y-116126190D01*
X137263333Y-116126190D01*
X138120476Y-115602380D02*
X138453809Y-116602380D01*
X138787142Y-115602380D01*
X139644285Y-116602380D02*
X139072857Y-116602380D01*
X139358571Y-116602380D02*
X139358571Y-115602380D01*
X139263333Y-115745238D01*
X139168095Y-115840476D01*
X139072857Y-115888095D01*
X139200833Y-139772380D02*
X138867500Y-139296190D01*
X138629404Y-139772380D02*
X138629404Y-138772380D01*
X139010357Y-138772380D01*
X139105595Y-138820000D01*
X139153214Y-138867619D01*
X139200833Y-138962857D01*
X139200833Y-139105714D01*
X139153214Y-139200952D01*
X139105595Y-139248571D01*
X139010357Y-139296190D01*
X138629404Y-139296190D01*
X140057976Y-139105714D02*
X140057976Y-139772380D01*
X139819880Y-138724761D02*
X139581785Y-139439047D01*
X140200833Y-139439047D01*
X148755833Y-125802380D02*
X148422500Y-125326190D01*
X148184404Y-125802380D02*
X148184404Y-124802380D01*
X148565357Y-124802380D01*
X148660595Y-124850000D01*
X148708214Y-124897619D01*
X148755833Y-124992857D01*
X148755833Y-125135714D01*
X148708214Y-125230952D01*
X148660595Y-125278571D01*
X148565357Y-125326190D01*
X148184404Y-125326190D01*
X149089166Y-124802380D02*
X149708214Y-124802380D01*
X149374880Y-125183333D01*
X149517738Y-125183333D01*
X149612976Y-125230952D01*
X149660595Y-125278571D01*
X149708214Y-125373809D01*
X149708214Y-125611904D01*
X149660595Y-125707142D01*
X149612976Y-125754761D01*
X149517738Y-125802380D01*
X149232023Y-125802380D01*
X149136785Y-125754761D01*
X149089166Y-125707142D01*
X104972380Y-132579166D02*
X104496190Y-132912500D01*
X104972380Y-133150595D02*
X103972380Y-133150595D01*
X103972380Y-132769642D01*
X104020000Y-132674404D01*
X104067619Y-132626785D01*
X104162857Y-132579166D01*
X104305714Y-132579166D01*
X104400952Y-132626785D01*
X104448571Y-132674404D01*
X104496190Y-132769642D01*
X104496190Y-133150595D01*
X104067619Y-132198214D02*
X104020000Y-132150595D01*
X103972380Y-132055357D01*
X103972380Y-131817261D01*
X104020000Y-131722023D01*
X104067619Y-131674404D01*
X104162857Y-131626785D01*
X104258095Y-131626785D01*
X104400952Y-131674404D01*
X104972380Y-132245833D01*
X104972380Y-131626785D01*
X142405833Y-125802380D02*
X142072500Y-125326190D01*
X141834404Y-125802380D02*
X141834404Y-124802380D01*
X142215357Y-124802380D01*
X142310595Y-124850000D01*
X142358214Y-124897619D01*
X142405833Y-124992857D01*
X142405833Y-125135714D01*
X142358214Y-125230952D01*
X142310595Y-125278571D01*
X142215357Y-125326190D01*
X141834404Y-125326190D01*
X143358214Y-125802380D02*
X142786785Y-125802380D01*
X143072500Y-125802380D02*
X143072500Y-124802380D01*
X142977261Y-124945238D01*
X142882023Y-125040476D01*
X142786785Y-125088095D01*
X135794761Y-137917619D02*
X135699523Y-137870000D01*
X135604285Y-137774761D01*
X135461428Y-137631904D01*
X135366190Y-137584285D01*
X135270952Y-137584285D01*
X135318571Y-137822380D02*
X135223333Y-137774761D01*
X135128095Y-137679523D01*
X135080476Y-137489047D01*
X135080476Y-137155714D01*
X135128095Y-136965238D01*
X135223333Y-136870000D01*
X135318571Y-136822380D01*
X135509047Y-136822380D01*
X135604285Y-136870000D01*
X135699523Y-136965238D01*
X135747142Y-137155714D01*
X135747142Y-137489047D01*
X135699523Y-137679523D01*
X135604285Y-137774761D01*
X135509047Y-137822380D01*
X135318571Y-137822380D01*
X136699523Y-137822380D02*
X136128095Y-137822380D01*
X136413809Y-137822380D02*
X136413809Y-136822380D01*
X136318571Y-136965238D01*
X136223333Y-137060476D01*
X136128095Y-137108095D01*
X155392380Y-143148333D02*
X156106666Y-143148333D01*
X156249523Y-143195952D01*
X156344761Y-143291190D01*
X156392380Y-143434047D01*
X156392380Y-143529285D01*
X155725714Y-142243571D02*
X156392380Y-142243571D01*
X155344761Y-142481666D02*
X156059047Y-142719761D01*
X156059047Y-142100714D01*
X148422380Y-79073333D02*
X149136666Y-79073333D01*
X149279523Y-79120952D01*
X149374761Y-79216190D01*
X149422380Y-79359047D01*
X149422380Y-79454285D01*
X148422380Y-78692380D02*
X148422380Y-78073333D01*
X148803333Y-78406666D01*
X148803333Y-78263809D01*
X148850952Y-78168571D01*
X148898571Y-78120952D01*
X148993809Y-78073333D01*
X149231904Y-78073333D01*
X149327142Y-78120952D01*
X149374761Y-78168571D01*
X149422380Y-78263809D01*
X149422380Y-78549523D01*
X149374761Y-78644761D01*
X149327142Y-78692380D01*
X160472380Y-143148333D02*
X161186666Y-143148333D01*
X161329523Y-143195952D01*
X161424761Y-143291190D01*
X161472380Y-143434047D01*
X161472380Y-143529285D01*
X160567619Y-142719761D02*
X160520000Y-142672142D01*
X160472380Y-142576904D01*
X160472380Y-142338809D01*
X160520000Y-142243571D01*
X160567619Y-142195952D01*
X160662857Y-142148333D01*
X160758095Y-142148333D01*
X160900952Y-142195952D01*
X161472380Y-142767380D01*
X161472380Y-142148333D01*
X160852380Y-133755595D02*
X159852380Y-133755595D01*
X159852380Y-133517500D01*
X159900000Y-133374642D01*
X159995238Y-133279404D01*
X160090476Y-133231785D01*
X160280952Y-133184166D01*
X160423809Y-133184166D01*
X160614285Y-133231785D01*
X160709523Y-133279404D01*
X160804761Y-133374642D01*
X160852380Y-133517500D01*
X160852380Y-133755595D01*
X160852380Y-132231785D02*
X160852380Y-132803214D01*
X160852380Y-132517500D02*
X159852380Y-132517500D01*
X159995238Y-132612738D01*
X160090476Y-132707976D01*
X160138095Y-132803214D01*
X157457142Y-128104166D02*
X157504761Y-128151785D01*
X157552380Y-128294642D01*
X157552380Y-128389880D01*
X157504761Y-128532738D01*
X157409523Y-128627976D01*
X157314285Y-128675595D01*
X157123809Y-128723214D01*
X156980952Y-128723214D01*
X156790476Y-128675595D01*
X156695238Y-128627976D01*
X156600000Y-128532738D01*
X156552380Y-128389880D01*
X156552380Y-128294642D01*
X156600000Y-128151785D01*
X156647619Y-128104166D01*
X156647619Y-127723214D02*
X156600000Y-127675595D01*
X156552380Y-127580357D01*
X156552380Y-127342261D01*
X156600000Y-127247023D01*
X156647619Y-127199404D01*
X156742857Y-127151785D01*
X156838095Y-127151785D01*
X156980952Y-127199404D01*
X157552380Y-127770833D01*
X157552380Y-127151785D01*
X154543333Y-115767142D02*
X154495714Y-115814761D01*
X154352857Y-115862380D01*
X154257619Y-115862380D01*
X154114761Y-115814761D01*
X154019523Y-115719523D01*
X153971904Y-115624285D01*
X153924285Y-115433809D01*
X153924285Y-115290952D01*
X153971904Y-115100476D01*
X154019523Y-115005238D01*
X154114761Y-114910000D01*
X154257619Y-114862380D01*
X154352857Y-114862380D01*
X154495714Y-114910000D01*
X154543333Y-114957619D01*
X155495714Y-115862380D02*
X154924285Y-115862380D01*
X155210000Y-115862380D02*
X155210000Y-114862380D01*
X155114761Y-115005238D01*
X155019523Y-115100476D01*
X154924285Y-115148095D01*
M02*
