G04 #@! TF.GenerationSoftware,KiCad,Pcbnew,(5.1.5)-3*
G04 #@! TF.CreationDate,2020-04-27T02:41:32-07:00*
G04 #@! TF.ProjectId,SolaRCharger,536f6c61-5243-4686-9172-6765722e6b69,rev?*
G04 #@! TF.SameCoordinates,Original*
G04 #@! TF.FileFunction,Paste,Top*
G04 #@! TF.FilePolarity,Positive*
%FSLAX46Y46*%
G04 Gerber Fmt 4.6, Leading zero omitted, Abs format (unit mm)*
G04 Created by KiCad (PCBNEW (5.1.5)-3) date 2020-04-27 02:41:32*
%MOMM*%
%LPD*%
G04 APERTURE LIST*
%ADD10C,0.100000*%
%ADD11R,2.500000X2.000000*%
%ADD12R,0.700000X1.800000*%
%ADD13R,2.200000X1.600000*%
G04 APERTURE END LIST*
D10*
G36*
X141744703Y-100665722D02*
G01*
X141759264Y-100667882D01*
X141773543Y-100671459D01*
X141787403Y-100676418D01*
X141800710Y-100682712D01*
X141813336Y-100690280D01*
X141825159Y-100699048D01*
X141836066Y-100708934D01*
X141845952Y-100719841D01*
X141854720Y-100731664D01*
X141862288Y-100744290D01*
X141868582Y-100757597D01*
X141873541Y-100771457D01*
X141877118Y-100785736D01*
X141879278Y-100800297D01*
X141880000Y-100815000D01*
X141880000Y-101115000D01*
X141879278Y-101129703D01*
X141877118Y-101144264D01*
X141873541Y-101158543D01*
X141868582Y-101172403D01*
X141862288Y-101185710D01*
X141854720Y-101198336D01*
X141845952Y-101210159D01*
X141836066Y-101221066D01*
X141825159Y-101230952D01*
X141813336Y-101239720D01*
X141800710Y-101247288D01*
X141787403Y-101253582D01*
X141773543Y-101258541D01*
X141759264Y-101262118D01*
X141744703Y-101264278D01*
X141730000Y-101265000D01*
X140080000Y-101265000D01*
X140065297Y-101264278D01*
X140050736Y-101262118D01*
X140036457Y-101258541D01*
X140022597Y-101253582D01*
X140009290Y-101247288D01*
X139996664Y-101239720D01*
X139984841Y-101230952D01*
X139973934Y-101221066D01*
X139964048Y-101210159D01*
X139955280Y-101198336D01*
X139947712Y-101185710D01*
X139941418Y-101172403D01*
X139936459Y-101158543D01*
X139932882Y-101144264D01*
X139930722Y-101129703D01*
X139930000Y-101115000D01*
X139930000Y-100815000D01*
X139930722Y-100800297D01*
X139932882Y-100785736D01*
X139936459Y-100771457D01*
X139941418Y-100757597D01*
X139947712Y-100744290D01*
X139955280Y-100731664D01*
X139964048Y-100719841D01*
X139973934Y-100708934D01*
X139984841Y-100699048D01*
X139996664Y-100690280D01*
X140009290Y-100682712D01*
X140022597Y-100676418D01*
X140036457Y-100671459D01*
X140050736Y-100667882D01*
X140065297Y-100665722D01*
X140080000Y-100665000D01*
X141730000Y-100665000D01*
X141744703Y-100665722D01*
G37*
G36*
X141744703Y-101935722D02*
G01*
X141759264Y-101937882D01*
X141773543Y-101941459D01*
X141787403Y-101946418D01*
X141800710Y-101952712D01*
X141813336Y-101960280D01*
X141825159Y-101969048D01*
X141836066Y-101978934D01*
X141845952Y-101989841D01*
X141854720Y-102001664D01*
X141862288Y-102014290D01*
X141868582Y-102027597D01*
X141873541Y-102041457D01*
X141877118Y-102055736D01*
X141879278Y-102070297D01*
X141880000Y-102085000D01*
X141880000Y-102385000D01*
X141879278Y-102399703D01*
X141877118Y-102414264D01*
X141873541Y-102428543D01*
X141868582Y-102442403D01*
X141862288Y-102455710D01*
X141854720Y-102468336D01*
X141845952Y-102480159D01*
X141836066Y-102491066D01*
X141825159Y-102500952D01*
X141813336Y-102509720D01*
X141800710Y-102517288D01*
X141787403Y-102523582D01*
X141773543Y-102528541D01*
X141759264Y-102532118D01*
X141744703Y-102534278D01*
X141730000Y-102535000D01*
X140080000Y-102535000D01*
X140065297Y-102534278D01*
X140050736Y-102532118D01*
X140036457Y-102528541D01*
X140022597Y-102523582D01*
X140009290Y-102517288D01*
X139996664Y-102509720D01*
X139984841Y-102500952D01*
X139973934Y-102491066D01*
X139964048Y-102480159D01*
X139955280Y-102468336D01*
X139947712Y-102455710D01*
X139941418Y-102442403D01*
X139936459Y-102428543D01*
X139932882Y-102414264D01*
X139930722Y-102399703D01*
X139930000Y-102385000D01*
X139930000Y-102085000D01*
X139930722Y-102070297D01*
X139932882Y-102055736D01*
X139936459Y-102041457D01*
X139941418Y-102027597D01*
X139947712Y-102014290D01*
X139955280Y-102001664D01*
X139964048Y-101989841D01*
X139973934Y-101978934D01*
X139984841Y-101969048D01*
X139996664Y-101960280D01*
X140009290Y-101952712D01*
X140022597Y-101946418D01*
X140036457Y-101941459D01*
X140050736Y-101937882D01*
X140065297Y-101935722D01*
X140080000Y-101935000D01*
X141730000Y-101935000D01*
X141744703Y-101935722D01*
G37*
G36*
X141744703Y-103205722D02*
G01*
X141759264Y-103207882D01*
X141773543Y-103211459D01*
X141787403Y-103216418D01*
X141800710Y-103222712D01*
X141813336Y-103230280D01*
X141825159Y-103239048D01*
X141836066Y-103248934D01*
X141845952Y-103259841D01*
X141854720Y-103271664D01*
X141862288Y-103284290D01*
X141868582Y-103297597D01*
X141873541Y-103311457D01*
X141877118Y-103325736D01*
X141879278Y-103340297D01*
X141880000Y-103355000D01*
X141880000Y-103655000D01*
X141879278Y-103669703D01*
X141877118Y-103684264D01*
X141873541Y-103698543D01*
X141868582Y-103712403D01*
X141862288Y-103725710D01*
X141854720Y-103738336D01*
X141845952Y-103750159D01*
X141836066Y-103761066D01*
X141825159Y-103770952D01*
X141813336Y-103779720D01*
X141800710Y-103787288D01*
X141787403Y-103793582D01*
X141773543Y-103798541D01*
X141759264Y-103802118D01*
X141744703Y-103804278D01*
X141730000Y-103805000D01*
X140080000Y-103805000D01*
X140065297Y-103804278D01*
X140050736Y-103802118D01*
X140036457Y-103798541D01*
X140022597Y-103793582D01*
X140009290Y-103787288D01*
X139996664Y-103779720D01*
X139984841Y-103770952D01*
X139973934Y-103761066D01*
X139964048Y-103750159D01*
X139955280Y-103738336D01*
X139947712Y-103725710D01*
X139941418Y-103712403D01*
X139936459Y-103698543D01*
X139932882Y-103684264D01*
X139930722Y-103669703D01*
X139930000Y-103655000D01*
X139930000Y-103355000D01*
X139930722Y-103340297D01*
X139932882Y-103325736D01*
X139936459Y-103311457D01*
X139941418Y-103297597D01*
X139947712Y-103284290D01*
X139955280Y-103271664D01*
X139964048Y-103259841D01*
X139973934Y-103248934D01*
X139984841Y-103239048D01*
X139996664Y-103230280D01*
X140009290Y-103222712D01*
X140022597Y-103216418D01*
X140036457Y-103211459D01*
X140050736Y-103207882D01*
X140065297Y-103205722D01*
X140080000Y-103205000D01*
X141730000Y-103205000D01*
X141744703Y-103205722D01*
G37*
G36*
X141744703Y-104475722D02*
G01*
X141759264Y-104477882D01*
X141773543Y-104481459D01*
X141787403Y-104486418D01*
X141800710Y-104492712D01*
X141813336Y-104500280D01*
X141825159Y-104509048D01*
X141836066Y-104518934D01*
X141845952Y-104529841D01*
X141854720Y-104541664D01*
X141862288Y-104554290D01*
X141868582Y-104567597D01*
X141873541Y-104581457D01*
X141877118Y-104595736D01*
X141879278Y-104610297D01*
X141880000Y-104625000D01*
X141880000Y-104925000D01*
X141879278Y-104939703D01*
X141877118Y-104954264D01*
X141873541Y-104968543D01*
X141868582Y-104982403D01*
X141862288Y-104995710D01*
X141854720Y-105008336D01*
X141845952Y-105020159D01*
X141836066Y-105031066D01*
X141825159Y-105040952D01*
X141813336Y-105049720D01*
X141800710Y-105057288D01*
X141787403Y-105063582D01*
X141773543Y-105068541D01*
X141759264Y-105072118D01*
X141744703Y-105074278D01*
X141730000Y-105075000D01*
X140080000Y-105075000D01*
X140065297Y-105074278D01*
X140050736Y-105072118D01*
X140036457Y-105068541D01*
X140022597Y-105063582D01*
X140009290Y-105057288D01*
X139996664Y-105049720D01*
X139984841Y-105040952D01*
X139973934Y-105031066D01*
X139964048Y-105020159D01*
X139955280Y-105008336D01*
X139947712Y-104995710D01*
X139941418Y-104982403D01*
X139936459Y-104968543D01*
X139932882Y-104954264D01*
X139930722Y-104939703D01*
X139930000Y-104925000D01*
X139930000Y-104625000D01*
X139930722Y-104610297D01*
X139932882Y-104595736D01*
X139936459Y-104581457D01*
X139941418Y-104567597D01*
X139947712Y-104554290D01*
X139955280Y-104541664D01*
X139964048Y-104529841D01*
X139973934Y-104518934D01*
X139984841Y-104509048D01*
X139996664Y-104500280D01*
X140009290Y-104492712D01*
X140022597Y-104486418D01*
X140036457Y-104481459D01*
X140050736Y-104477882D01*
X140065297Y-104475722D01*
X140080000Y-104475000D01*
X141730000Y-104475000D01*
X141744703Y-104475722D01*
G37*
G36*
X136794703Y-104475722D02*
G01*
X136809264Y-104477882D01*
X136823543Y-104481459D01*
X136837403Y-104486418D01*
X136850710Y-104492712D01*
X136863336Y-104500280D01*
X136875159Y-104509048D01*
X136886066Y-104518934D01*
X136895952Y-104529841D01*
X136904720Y-104541664D01*
X136912288Y-104554290D01*
X136918582Y-104567597D01*
X136923541Y-104581457D01*
X136927118Y-104595736D01*
X136929278Y-104610297D01*
X136930000Y-104625000D01*
X136930000Y-104925000D01*
X136929278Y-104939703D01*
X136927118Y-104954264D01*
X136923541Y-104968543D01*
X136918582Y-104982403D01*
X136912288Y-104995710D01*
X136904720Y-105008336D01*
X136895952Y-105020159D01*
X136886066Y-105031066D01*
X136875159Y-105040952D01*
X136863336Y-105049720D01*
X136850710Y-105057288D01*
X136837403Y-105063582D01*
X136823543Y-105068541D01*
X136809264Y-105072118D01*
X136794703Y-105074278D01*
X136780000Y-105075000D01*
X135130000Y-105075000D01*
X135115297Y-105074278D01*
X135100736Y-105072118D01*
X135086457Y-105068541D01*
X135072597Y-105063582D01*
X135059290Y-105057288D01*
X135046664Y-105049720D01*
X135034841Y-105040952D01*
X135023934Y-105031066D01*
X135014048Y-105020159D01*
X135005280Y-105008336D01*
X134997712Y-104995710D01*
X134991418Y-104982403D01*
X134986459Y-104968543D01*
X134982882Y-104954264D01*
X134980722Y-104939703D01*
X134980000Y-104925000D01*
X134980000Y-104625000D01*
X134980722Y-104610297D01*
X134982882Y-104595736D01*
X134986459Y-104581457D01*
X134991418Y-104567597D01*
X134997712Y-104554290D01*
X135005280Y-104541664D01*
X135014048Y-104529841D01*
X135023934Y-104518934D01*
X135034841Y-104509048D01*
X135046664Y-104500280D01*
X135059290Y-104492712D01*
X135072597Y-104486418D01*
X135086457Y-104481459D01*
X135100736Y-104477882D01*
X135115297Y-104475722D01*
X135130000Y-104475000D01*
X136780000Y-104475000D01*
X136794703Y-104475722D01*
G37*
G36*
X136794703Y-103205722D02*
G01*
X136809264Y-103207882D01*
X136823543Y-103211459D01*
X136837403Y-103216418D01*
X136850710Y-103222712D01*
X136863336Y-103230280D01*
X136875159Y-103239048D01*
X136886066Y-103248934D01*
X136895952Y-103259841D01*
X136904720Y-103271664D01*
X136912288Y-103284290D01*
X136918582Y-103297597D01*
X136923541Y-103311457D01*
X136927118Y-103325736D01*
X136929278Y-103340297D01*
X136930000Y-103355000D01*
X136930000Y-103655000D01*
X136929278Y-103669703D01*
X136927118Y-103684264D01*
X136923541Y-103698543D01*
X136918582Y-103712403D01*
X136912288Y-103725710D01*
X136904720Y-103738336D01*
X136895952Y-103750159D01*
X136886066Y-103761066D01*
X136875159Y-103770952D01*
X136863336Y-103779720D01*
X136850710Y-103787288D01*
X136837403Y-103793582D01*
X136823543Y-103798541D01*
X136809264Y-103802118D01*
X136794703Y-103804278D01*
X136780000Y-103805000D01*
X135130000Y-103805000D01*
X135115297Y-103804278D01*
X135100736Y-103802118D01*
X135086457Y-103798541D01*
X135072597Y-103793582D01*
X135059290Y-103787288D01*
X135046664Y-103779720D01*
X135034841Y-103770952D01*
X135023934Y-103761066D01*
X135014048Y-103750159D01*
X135005280Y-103738336D01*
X134997712Y-103725710D01*
X134991418Y-103712403D01*
X134986459Y-103698543D01*
X134982882Y-103684264D01*
X134980722Y-103669703D01*
X134980000Y-103655000D01*
X134980000Y-103355000D01*
X134980722Y-103340297D01*
X134982882Y-103325736D01*
X134986459Y-103311457D01*
X134991418Y-103297597D01*
X134997712Y-103284290D01*
X135005280Y-103271664D01*
X135014048Y-103259841D01*
X135023934Y-103248934D01*
X135034841Y-103239048D01*
X135046664Y-103230280D01*
X135059290Y-103222712D01*
X135072597Y-103216418D01*
X135086457Y-103211459D01*
X135100736Y-103207882D01*
X135115297Y-103205722D01*
X135130000Y-103205000D01*
X136780000Y-103205000D01*
X136794703Y-103205722D01*
G37*
G36*
X136794703Y-101935722D02*
G01*
X136809264Y-101937882D01*
X136823543Y-101941459D01*
X136837403Y-101946418D01*
X136850710Y-101952712D01*
X136863336Y-101960280D01*
X136875159Y-101969048D01*
X136886066Y-101978934D01*
X136895952Y-101989841D01*
X136904720Y-102001664D01*
X136912288Y-102014290D01*
X136918582Y-102027597D01*
X136923541Y-102041457D01*
X136927118Y-102055736D01*
X136929278Y-102070297D01*
X136930000Y-102085000D01*
X136930000Y-102385000D01*
X136929278Y-102399703D01*
X136927118Y-102414264D01*
X136923541Y-102428543D01*
X136918582Y-102442403D01*
X136912288Y-102455710D01*
X136904720Y-102468336D01*
X136895952Y-102480159D01*
X136886066Y-102491066D01*
X136875159Y-102500952D01*
X136863336Y-102509720D01*
X136850710Y-102517288D01*
X136837403Y-102523582D01*
X136823543Y-102528541D01*
X136809264Y-102532118D01*
X136794703Y-102534278D01*
X136780000Y-102535000D01*
X135130000Y-102535000D01*
X135115297Y-102534278D01*
X135100736Y-102532118D01*
X135086457Y-102528541D01*
X135072597Y-102523582D01*
X135059290Y-102517288D01*
X135046664Y-102509720D01*
X135034841Y-102500952D01*
X135023934Y-102491066D01*
X135014048Y-102480159D01*
X135005280Y-102468336D01*
X134997712Y-102455710D01*
X134991418Y-102442403D01*
X134986459Y-102428543D01*
X134982882Y-102414264D01*
X134980722Y-102399703D01*
X134980000Y-102385000D01*
X134980000Y-102085000D01*
X134980722Y-102070297D01*
X134982882Y-102055736D01*
X134986459Y-102041457D01*
X134991418Y-102027597D01*
X134997712Y-102014290D01*
X135005280Y-102001664D01*
X135014048Y-101989841D01*
X135023934Y-101978934D01*
X135034841Y-101969048D01*
X135046664Y-101960280D01*
X135059290Y-101952712D01*
X135072597Y-101946418D01*
X135086457Y-101941459D01*
X135100736Y-101937882D01*
X135115297Y-101935722D01*
X135130000Y-101935000D01*
X136780000Y-101935000D01*
X136794703Y-101935722D01*
G37*
G36*
X136794703Y-100665722D02*
G01*
X136809264Y-100667882D01*
X136823543Y-100671459D01*
X136837403Y-100676418D01*
X136850710Y-100682712D01*
X136863336Y-100690280D01*
X136875159Y-100699048D01*
X136886066Y-100708934D01*
X136895952Y-100719841D01*
X136904720Y-100731664D01*
X136912288Y-100744290D01*
X136918582Y-100757597D01*
X136923541Y-100771457D01*
X136927118Y-100785736D01*
X136929278Y-100800297D01*
X136930000Y-100815000D01*
X136930000Y-101115000D01*
X136929278Y-101129703D01*
X136927118Y-101144264D01*
X136923541Y-101158543D01*
X136918582Y-101172403D01*
X136912288Y-101185710D01*
X136904720Y-101198336D01*
X136895952Y-101210159D01*
X136886066Y-101221066D01*
X136875159Y-101230952D01*
X136863336Y-101239720D01*
X136850710Y-101247288D01*
X136837403Y-101253582D01*
X136823543Y-101258541D01*
X136809264Y-101262118D01*
X136794703Y-101264278D01*
X136780000Y-101265000D01*
X135130000Y-101265000D01*
X135115297Y-101264278D01*
X135100736Y-101262118D01*
X135086457Y-101258541D01*
X135072597Y-101253582D01*
X135059290Y-101247288D01*
X135046664Y-101239720D01*
X135034841Y-101230952D01*
X135023934Y-101221066D01*
X135014048Y-101210159D01*
X135005280Y-101198336D01*
X134997712Y-101185710D01*
X134991418Y-101172403D01*
X134986459Y-101158543D01*
X134982882Y-101144264D01*
X134980722Y-101129703D01*
X134980000Y-101115000D01*
X134980000Y-100815000D01*
X134980722Y-100800297D01*
X134982882Y-100785736D01*
X134986459Y-100771457D01*
X134991418Y-100757597D01*
X134997712Y-100744290D01*
X135005280Y-100731664D01*
X135014048Y-100719841D01*
X135023934Y-100708934D01*
X135034841Y-100699048D01*
X135046664Y-100690280D01*
X135059290Y-100682712D01*
X135072597Y-100676418D01*
X135086457Y-100671459D01*
X135100736Y-100667882D01*
X135115297Y-100665722D01*
X135130000Y-100665000D01*
X136780000Y-100665000D01*
X136794703Y-100665722D01*
G37*
D11*
X134105000Y-122800000D03*
X142755000Y-120650000D03*
X134105000Y-118500000D03*
D10*
G36*
X140572642Y-140271174D02*
G01*
X140596303Y-140274684D01*
X140619507Y-140280496D01*
X140642029Y-140288554D01*
X140663653Y-140298782D01*
X140684170Y-140311079D01*
X140703383Y-140325329D01*
X140721107Y-140341393D01*
X140737171Y-140359117D01*
X140751421Y-140378330D01*
X140763718Y-140398847D01*
X140773946Y-140420471D01*
X140782004Y-140442993D01*
X140787816Y-140466197D01*
X140791326Y-140489858D01*
X140792500Y-140513750D01*
X140792500Y-141426250D01*
X140791326Y-141450142D01*
X140787816Y-141473803D01*
X140782004Y-141497007D01*
X140773946Y-141519529D01*
X140763718Y-141541153D01*
X140751421Y-141561670D01*
X140737171Y-141580883D01*
X140721107Y-141598607D01*
X140703383Y-141614671D01*
X140684170Y-141628921D01*
X140663653Y-141641218D01*
X140642029Y-141651446D01*
X140619507Y-141659504D01*
X140596303Y-141665316D01*
X140572642Y-141668826D01*
X140548750Y-141670000D01*
X140061250Y-141670000D01*
X140037358Y-141668826D01*
X140013697Y-141665316D01*
X139990493Y-141659504D01*
X139967971Y-141651446D01*
X139946347Y-141641218D01*
X139925830Y-141628921D01*
X139906617Y-141614671D01*
X139888893Y-141598607D01*
X139872829Y-141580883D01*
X139858579Y-141561670D01*
X139846282Y-141541153D01*
X139836054Y-141519529D01*
X139827996Y-141497007D01*
X139822184Y-141473803D01*
X139818674Y-141450142D01*
X139817500Y-141426250D01*
X139817500Y-140513750D01*
X139818674Y-140489858D01*
X139822184Y-140466197D01*
X139827996Y-140442993D01*
X139836054Y-140420471D01*
X139846282Y-140398847D01*
X139858579Y-140378330D01*
X139872829Y-140359117D01*
X139888893Y-140341393D01*
X139906617Y-140325329D01*
X139925830Y-140311079D01*
X139946347Y-140298782D01*
X139967971Y-140288554D01*
X139990493Y-140280496D01*
X140013697Y-140274684D01*
X140037358Y-140271174D01*
X140061250Y-140270000D01*
X140548750Y-140270000D01*
X140572642Y-140271174D01*
G37*
G36*
X138697642Y-140271174D02*
G01*
X138721303Y-140274684D01*
X138744507Y-140280496D01*
X138767029Y-140288554D01*
X138788653Y-140298782D01*
X138809170Y-140311079D01*
X138828383Y-140325329D01*
X138846107Y-140341393D01*
X138862171Y-140359117D01*
X138876421Y-140378330D01*
X138888718Y-140398847D01*
X138898946Y-140420471D01*
X138907004Y-140442993D01*
X138912816Y-140466197D01*
X138916326Y-140489858D01*
X138917500Y-140513750D01*
X138917500Y-141426250D01*
X138916326Y-141450142D01*
X138912816Y-141473803D01*
X138907004Y-141497007D01*
X138898946Y-141519529D01*
X138888718Y-141541153D01*
X138876421Y-141561670D01*
X138862171Y-141580883D01*
X138846107Y-141598607D01*
X138828383Y-141614671D01*
X138809170Y-141628921D01*
X138788653Y-141641218D01*
X138767029Y-141651446D01*
X138744507Y-141659504D01*
X138721303Y-141665316D01*
X138697642Y-141668826D01*
X138673750Y-141670000D01*
X138186250Y-141670000D01*
X138162358Y-141668826D01*
X138138697Y-141665316D01*
X138115493Y-141659504D01*
X138092971Y-141651446D01*
X138071347Y-141641218D01*
X138050830Y-141628921D01*
X138031617Y-141614671D01*
X138013893Y-141598607D01*
X137997829Y-141580883D01*
X137983579Y-141561670D01*
X137971282Y-141541153D01*
X137961054Y-141519529D01*
X137952996Y-141497007D01*
X137947184Y-141473803D01*
X137943674Y-141450142D01*
X137942500Y-141426250D01*
X137942500Y-140513750D01*
X137943674Y-140489858D01*
X137947184Y-140466197D01*
X137952996Y-140442993D01*
X137961054Y-140420471D01*
X137971282Y-140398847D01*
X137983579Y-140378330D01*
X137997829Y-140359117D01*
X138013893Y-140341393D01*
X138031617Y-140325329D01*
X138050830Y-140311079D01*
X138071347Y-140298782D01*
X138092971Y-140288554D01*
X138115493Y-140280496D01*
X138138697Y-140274684D01*
X138162358Y-140271174D01*
X138186250Y-140270000D01*
X138673750Y-140270000D01*
X138697642Y-140271174D01*
G37*
G36*
X150127642Y-126301174D02*
G01*
X150151303Y-126304684D01*
X150174507Y-126310496D01*
X150197029Y-126318554D01*
X150218653Y-126328782D01*
X150239170Y-126341079D01*
X150258383Y-126355329D01*
X150276107Y-126371393D01*
X150292171Y-126389117D01*
X150306421Y-126408330D01*
X150318718Y-126428847D01*
X150328946Y-126450471D01*
X150337004Y-126472993D01*
X150342816Y-126496197D01*
X150346326Y-126519858D01*
X150347500Y-126543750D01*
X150347500Y-127456250D01*
X150346326Y-127480142D01*
X150342816Y-127503803D01*
X150337004Y-127527007D01*
X150328946Y-127549529D01*
X150318718Y-127571153D01*
X150306421Y-127591670D01*
X150292171Y-127610883D01*
X150276107Y-127628607D01*
X150258383Y-127644671D01*
X150239170Y-127658921D01*
X150218653Y-127671218D01*
X150197029Y-127681446D01*
X150174507Y-127689504D01*
X150151303Y-127695316D01*
X150127642Y-127698826D01*
X150103750Y-127700000D01*
X149616250Y-127700000D01*
X149592358Y-127698826D01*
X149568697Y-127695316D01*
X149545493Y-127689504D01*
X149522971Y-127681446D01*
X149501347Y-127671218D01*
X149480830Y-127658921D01*
X149461617Y-127644671D01*
X149443893Y-127628607D01*
X149427829Y-127610883D01*
X149413579Y-127591670D01*
X149401282Y-127571153D01*
X149391054Y-127549529D01*
X149382996Y-127527007D01*
X149377184Y-127503803D01*
X149373674Y-127480142D01*
X149372500Y-127456250D01*
X149372500Y-126543750D01*
X149373674Y-126519858D01*
X149377184Y-126496197D01*
X149382996Y-126472993D01*
X149391054Y-126450471D01*
X149401282Y-126428847D01*
X149413579Y-126408330D01*
X149427829Y-126389117D01*
X149443893Y-126371393D01*
X149461617Y-126355329D01*
X149480830Y-126341079D01*
X149501347Y-126328782D01*
X149522971Y-126318554D01*
X149545493Y-126310496D01*
X149568697Y-126304684D01*
X149592358Y-126301174D01*
X149616250Y-126300000D01*
X150103750Y-126300000D01*
X150127642Y-126301174D01*
G37*
G36*
X148252642Y-126301174D02*
G01*
X148276303Y-126304684D01*
X148299507Y-126310496D01*
X148322029Y-126318554D01*
X148343653Y-126328782D01*
X148364170Y-126341079D01*
X148383383Y-126355329D01*
X148401107Y-126371393D01*
X148417171Y-126389117D01*
X148431421Y-126408330D01*
X148443718Y-126428847D01*
X148453946Y-126450471D01*
X148462004Y-126472993D01*
X148467816Y-126496197D01*
X148471326Y-126519858D01*
X148472500Y-126543750D01*
X148472500Y-127456250D01*
X148471326Y-127480142D01*
X148467816Y-127503803D01*
X148462004Y-127527007D01*
X148453946Y-127549529D01*
X148443718Y-127571153D01*
X148431421Y-127591670D01*
X148417171Y-127610883D01*
X148401107Y-127628607D01*
X148383383Y-127644671D01*
X148364170Y-127658921D01*
X148343653Y-127671218D01*
X148322029Y-127681446D01*
X148299507Y-127689504D01*
X148276303Y-127695316D01*
X148252642Y-127698826D01*
X148228750Y-127700000D01*
X147741250Y-127700000D01*
X147717358Y-127698826D01*
X147693697Y-127695316D01*
X147670493Y-127689504D01*
X147647971Y-127681446D01*
X147626347Y-127671218D01*
X147605830Y-127658921D01*
X147586617Y-127644671D01*
X147568893Y-127628607D01*
X147552829Y-127610883D01*
X147538579Y-127591670D01*
X147526282Y-127571153D01*
X147516054Y-127549529D01*
X147507996Y-127527007D01*
X147502184Y-127503803D01*
X147498674Y-127480142D01*
X147497500Y-127456250D01*
X147497500Y-126543750D01*
X147498674Y-126519858D01*
X147502184Y-126496197D01*
X147507996Y-126472993D01*
X147516054Y-126450471D01*
X147526282Y-126428847D01*
X147538579Y-126408330D01*
X147552829Y-126389117D01*
X147568893Y-126371393D01*
X147586617Y-126355329D01*
X147605830Y-126341079D01*
X147626347Y-126328782D01*
X147647971Y-126318554D01*
X147670493Y-126310496D01*
X147693697Y-126304684D01*
X147717358Y-126301174D01*
X147741250Y-126300000D01*
X148228750Y-126300000D01*
X148252642Y-126301174D01*
G37*
G36*
X103350142Y-132863674D02*
G01*
X103373803Y-132867184D01*
X103397007Y-132872996D01*
X103419529Y-132881054D01*
X103441153Y-132891282D01*
X103461670Y-132903579D01*
X103480883Y-132917829D01*
X103498607Y-132933893D01*
X103514671Y-132951617D01*
X103528921Y-132970830D01*
X103541218Y-132991347D01*
X103551446Y-133012971D01*
X103559504Y-133035493D01*
X103565316Y-133058697D01*
X103568826Y-133082358D01*
X103570000Y-133106250D01*
X103570000Y-133593750D01*
X103568826Y-133617642D01*
X103565316Y-133641303D01*
X103559504Y-133664507D01*
X103551446Y-133687029D01*
X103541218Y-133708653D01*
X103528921Y-133729170D01*
X103514671Y-133748383D01*
X103498607Y-133766107D01*
X103480883Y-133782171D01*
X103461670Y-133796421D01*
X103441153Y-133808718D01*
X103419529Y-133818946D01*
X103397007Y-133827004D01*
X103373803Y-133832816D01*
X103350142Y-133836326D01*
X103326250Y-133837500D01*
X102413750Y-133837500D01*
X102389858Y-133836326D01*
X102366197Y-133832816D01*
X102342993Y-133827004D01*
X102320471Y-133818946D01*
X102298847Y-133808718D01*
X102278330Y-133796421D01*
X102259117Y-133782171D01*
X102241393Y-133766107D01*
X102225329Y-133748383D01*
X102211079Y-133729170D01*
X102198782Y-133708653D01*
X102188554Y-133687029D01*
X102180496Y-133664507D01*
X102174684Y-133641303D01*
X102171174Y-133617642D01*
X102170000Y-133593750D01*
X102170000Y-133106250D01*
X102171174Y-133082358D01*
X102174684Y-133058697D01*
X102180496Y-133035493D01*
X102188554Y-133012971D01*
X102198782Y-132991347D01*
X102211079Y-132970830D01*
X102225329Y-132951617D01*
X102241393Y-132933893D01*
X102259117Y-132917829D01*
X102278330Y-132903579D01*
X102298847Y-132891282D01*
X102320471Y-132881054D01*
X102342993Y-132872996D01*
X102366197Y-132867184D01*
X102389858Y-132863674D01*
X102413750Y-132862500D01*
X103326250Y-132862500D01*
X103350142Y-132863674D01*
G37*
G36*
X103350142Y-130988674D02*
G01*
X103373803Y-130992184D01*
X103397007Y-130997996D01*
X103419529Y-131006054D01*
X103441153Y-131016282D01*
X103461670Y-131028579D01*
X103480883Y-131042829D01*
X103498607Y-131058893D01*
X103514671Y-131076617D01*
X103528921Y-131095830D01*
X103541218Y-131116347D01*
X103551446Y-131137971D01*
X103559504Y-131160493D01*
X103565316Y-131183697D01*
X103568826Y-131207358D01*
X103570000Y-131231250D01*
X103570000Y-131718750D01*
X103568826Y-131742642D01*
X103565316Y-131766303D01*
X103559504Y-131789507D01*
X103551446Y-131812029D01*
X103541218Y-131833653D01*
X103528921Y-131854170D01*
X103514671Y-131873383D01*
X103498607Y-131891107D01*
X103480883Y-131907171D01*
X103461670Y-131921421D01*
X103441153Y-131933718D01*
X103419529Y-131943946D01*
X103397007Y-131952004D01*
X103373803Y-131957816D01*
X103350142Y-131961326D01*
X103326250Y-131962500D01*
X102413750Y-131962500D01*
X102389858Y-131961326D01*
X102366197Y-131957816D01*
X102342993Y-131952004D01*
X102320471Y-131943946D01*
X102298847Y-131933718D01*
X102278330Y-131921421D01*
X102259117Y-131907171D01*
X102241393Y-131891107D01*
X102225329Y-131873383D01*
X102211079Y-131854170D01*
X102198782Y-131833653D01*
X102188554Y-131812029D01*
X102180496Y-131789507D01*
X102174684Y-131766303D01*
X102171174Y-131742642D01*
X102170000Y-131718750D01*
X102170000Y-131231250D01*
X102171174Y-131207358D01*
X102174684Y-131183697D01*
X102180496Y-131160493D01*
X102188554Y-131137971D01*
X102198782Y-131116347D01*
X102211079Y-131095830D01*
X102225329Y-131076617D01*
X102241393Y-131058893D01*
X102259117Y-131042829D01*
X102278330Y-131028579D01*
X102298847Y-131016282D01*
X102320471Y-131006054D01*
X102342993Y-130997996D01*
X102366197Y-130992184D01*
X102389858Y-130988674D01*
X102413750Y-130987500D01*
X103326250Y-130987500D01*
X103350142Y-130988674D01*
G37*
G36*
X143777642Y-126301174D02*
G01*
X143801303Y-126304684D01*
X143824507Y-126310496D01*
X143847029Y-126318554D01*
X143868653Y-126328782D01*
X143889170Y-126341079D01*
X143908383Y-126355329D01*
X143926107Y-126371393D01*
X143942171Y-126389117D01*
X143956421Y-126408330D01*
X143968718Y-126428847D01*
X143978946Y-126450471D01*
X143987004Y-126472993D01*
X143992816Y-126496197D01*
X143996326Y-126519858D01*
X143997500Y-126543750D01*
X143997500Y-127456250D01*
X143996326Y-127480142D01*
X143992816Y-127503803D01*
X143987004Y-127527007D01*
X143978946Y-127549529D01*
X143968718Y-127571153D01*
X143956421Y-127591670D01*
X143942171Y-127610883D01*
X143926107Y-127628607D01*
X143908383Y-127644671D01*
X143889170Y-127658921D01*
X143868653Y-127671218D01*
X143847029Y-127681446D01*
X143824507Y-127689504D01*
X143801303Y-127695316D01*
X143777642Y-127698826D01*
X143753750Y-127700000D01*
X143266250Y-127700000D01*
X143242358Y-127698826D01*
X143218697Y-127695316D01*
X143195493Y-127689504D01*
X143172971Y-127681446D01*
X143151347Y-127671218D01*
X143130830Y-127658921D01*
X143111617Y-127644671D01*
X143093893Y-127628607D01*
X143077829Y-127610883D01*
X143063579Y-127591670D01*
X143051282Y-127571153D01*
X143041054Y-127549529D01*
X143032996Y-127527007D01*
X143027184Y-127503803D01*
X143023674Y-127480142D01*
X143022500Y-127456250D01*
X143022500Y-126543750D01*
X143023674Y-126519858D01*
X143027184Y-126496197D01*
X143032996Y-126472993D01*
X143041054Y-126450471D01*
X143051282Y-126428847D01*
X143063579Y-126408330D01*
X143077829Y-126389117D01*
X143093893Y-126371393D01*
X143111617Y-126355329D01*
X143130830Y-126341079D01*
X143151347Y-126328782D01*
X143172971Y-126318554D01*
X143195493Y-126310496D01*
X143218697Y-126304684D01*
X143242358Y-126301174D01*
X143266250Y-126300000D01*
X143753750Y-126300000D01*
X143777642Y-126301174D01*
G37*
G36*
X141902642Y-126301174D02*
G01*
X141926303Y-126304684D01*
X141949507Y-126310496D01*
X141972029Y-126318554D01*
X141993653Y-126328782D01*
X142014170Y-126341079D01*
X142033383Y-126355329D01*
X142051107Y-126371393D01*
X142067171Y-126389117D01*
X142081421Y-126408330D01*
X142093718Y-126428847D01*
X142103946Y-126450471D01*
X142112004Y-126472993D01*
X142117816Y-126496197D01*
X142121326Y-126519858D01*
X142122500Y-126543750D01*
X142122500Y-127456250D01*
X142121326Y-127480142D01*
X142117816Y-127503803D01*
X142112004Y-127527007D01*
X142103946Y-127549529D01*
X142093718Y-127571153D01*
X142081421Y-127591670D01*
X142067171Y-127610883D01*
X142051107Y-127628607D01*
X142033383Y-127644671D01*
X142014170Y-127658921D01*
X141993653Y-127671218D01*
X141972029Y-127681446D01*
X141949507Y-127689504D01*
X141926303Y-127695316D01*
X141902642Y-127698826D01*
X141878750Y-127700000D01*
X141391250Y-127700000D01*
X141367358Y-127698826D01*
X141343697Y-127695316D01*
X141320493Y-127689504D01*
X141297971Y-127681446D01*
X141276347Y-127671218D01*
X141255830Y-127658921D01*
X141236617Y-127644671D01*
X141218893Y-127628607D01*
X141202829Y-127610883D01*
X141188579Y-127591670D01*
X141176282Y-127571153D01*
X141166054Y-127549529D01*
X141157996Y-127527007D01*
X141152184Y-127503803D01*
X141148674Y-127480142D01*
X141147500Y-127456250D01*
X141147500Y-126543750D01*
X141148674Y-126519858D01*
X141152184Y-126496197D01*
X141157996Y-126472993D01*
X141166054Y-126450471D01*
X141176282Y-126428847D01*
X141188579Y-126408330D01*
X141202829Y-126389117D01*
X141218893Y-126371393D01*
X141236617Y-126355329D01*
X141255830Y-126341079D01*
X141276347Y-126328782D01*
X141297971Y-126318554D01*
X141320493Y-126310496D01*
X141343697Y-126304684D01*
X141367358Y-126301174D01*
X141391250Y-126300000D01*
X141878750Y-126300000D01*
X141902642Y-126301174D01*
G37*
D12*
X144970000Y-76965000D03*
X143970000Y-76965000D03*
X142970000Y-76965000D03*
X141970000Y-76965000D03*
X140970000Y-76965000D03*
X139970000Y-76965000D03*
X138970000Y-76965000D03*
X137970000Y-76965000D03*
X136970000Y-76965000D03*
D10*
G36*
X159230142Y-133468674D02*
G01*
X159253803Y-133472184D01*
X159277007Y-133477996D01*
X159299529Y-133486054D01*
X159321153Y-133496282D01*
X159341670Y-133508579D01*
X159360883Y-133522829D01*
X159378607Y-133538893D01*
X159394671Y-133556617D01*
X159408921Y-133575830D01*
X159421218Y-133596347D01*
X159431446Y-133617971D01*
X159439504Y-133640493D01*
X159445316Y-133663697D01*
X159448826Y-133687358D01*
X159450000Y-133711250D01*
X159450000Y-134198750D01*
X159448826Y-134222642D01*
X159445316Y-134246303D01*
X159439504Y-134269507D01*
X159431446Y-134292029D01*
X159421218Y-134313653D01*
X159408921Y-134334170D01*
X159394671Y-134353383D01*
X159378607Y-134371107D01*
X159360883Y-134387171D01*
X159341670Y-134401421D01*
X159321153Y-134413718D01*
X159299529Y-134423946D01*
X159277007Y-134432004D01*
X159253803Y-134437816D01*
X159230142Y-134441326D01*
X159206250Y-134442500D01*
X158293750Y-134442500D01*
X158269858Y-134441326D01*
X158246197Y-134437816D01*
X158222993Y-134432004D01*
X158200471Y-134423946D01*
X158178847Y-134413718D01*
X158158330Y-134401421D01*
X158139117Y-134387171D01*
X158121393Y-134371107D01*
X158105329Y-134353383D01*
X158091079Y-134334170D01*
X158078782Y-134313653D01*
X158068554Y-134292029D01*
X158060496Y-134269507D01*
X158054684Y-134246303D01*
X158051174Y-134222642D01*
X158050000Y-134198750D01*
X158050000Y-133711250D01*
X158051174Y-133687358D01*
X158054684Y-133663697D01*
X158060496Y-133640493D01*
X158068554Y-133617971D01*
X158078782Y-133596347D01*
X158091079Y-133575830D01*
X158105329Y-133556617D01*
X158121393Y-133538893D01*
X158139117Y-133522829D01*
X158158330Y-133508579D01*
X158178847Y-133496282D01*
X158200471Y-133486054D01*
X158222993Y-133477996D01*
X158246197Y-133472184D01*
X158269858Y-133468674D01*
X158293750Y-133467500D01*
X159206250Y-133467500D01*
X159230142Y-133468674D01*
G37*
G36*
X159230142Y-131593674D02*
G01*
X159253803Y-131597184D01*
X159277007Y-131602996D01*
X159299529Y-131611054D01*
X159321153Y-131621282D01*
X159341670Y-131633579D01*
X159360883Y-131647829D01*
X159378607Y-131663893D01*
X159394671Y-131681617D01*
X159408921Y-131700830D01*
X159421218Y-131721347D01*
X159431446Y-131742971D01*
X159439504Y-131765493D01*
X159445316Y-131788697D01*
X159448826Y-131812358D01*
X159450000Y-131836250D01*
X159450000Y-132323750D01*
X159448826Y-132347642D01*
X159445316Y-132371303D01*
X159439504Y-132394507D01*
X159431446Y-132417029D01*
X159421218Y-132438653D01*
X159408921Y-132459170D01*
X159394671Y-132478383D01*
X159378607Y-132496107D01*
X159360883Y-132512171D01*
X159341670Y-132526421D01*
X159321153Y-132538718D01*
X159299529Y-132548946D01*
X159277007Y-132557004D01*
X159253803Y-132562816D01*
X159230142Y-132566326D01*
X159206250Y-132567500D01*
X158293750Y-132567500D01*
X158269858Y-132566326D01*
X158246197Y-132562816D01*
X158222993Y-132557004D01*
X158200471Y-132548946D01*
X158178847Y-132538718D01*
X158158330Y-132526421D01*
X158139117Y-132512171D01*
X158121393Y-132496107D01*
X158105329Y-132478383D01*
X158091079Y-132459170D01*
X158078782Y-132438653D01*
X158068554Y-132417029D01*
X158060496Y-132394507D01*
X158054684Y-132371303D01*
X158051174Y-132347642D01*
X158050000Y-132323750D01*
X158050000Y-131836250D01*
X158051174Y-131812358D01*
X158054684Y-131788697D01*
X158060496Y-131765493D01*
X158068554Y-131742971D01*
X158078782Y-131721347D01*
X158091079Y-131700830D01*
X158105329Y-131681617D01*
X158121393Y-131663893D01*
X158139117Y-131647829D01*
X158158330Y-131633579D01*
X158178847Y-131621282D01*
X158200471Y-131611054D01*
X158222993Y-131602996D01*
X158246197Y-131597184D01*
X158269858Y-131593674D01*
X158293750Y-131592500D01*
X159206250Y-131592500D01*
X159230142Y-131593674D01*
G37*
G36*
X159230142Y-126513674D02*
G01*
X159253803Y-126517184D01*
X159277007Y-126522996D01*
X159299529Y-126531054D01*
X159321153Y-126541282D01*
X159341670Y-126553579D01*
X159360883Y-126567829D01*
X159378607Y-126583893D01*
X159394671Y-126601617D01*
X159408921Y-126620830D01*
X159421218Y-126641347D01*
X159431446Y-126662971D01*
X159439504Y-126685493D01*
X159445316Y-126708697D01*
X159448826Y-126732358D01*
X159450000Y-126756250D01*
X159450000Y-127243750D01*
X159448826Y-127267642D01*
X159445316Y-127291303D01*
X159439504Y-127314507D01*
X159431446Y-127337029D01*
X159421218Y-127358653D01*
X159408921Y-127379170D01*
X159394671Y-127398383D01*
X159378607Y-127416107D01*
X159360883Y-127432171D01*
X159341670Y-127446421D01*
X159321153Y-127458718D01*
X159299529Y-127468946D01*
X159277007Y-127477004D01*
X159253803Y-127482816D01*
X159230142Y-127486326D01*
X159206250Y-127487500D01*
X158293750Y-127487500D01*
X158269858Y-127486326D01*
X158246197Y-127482816D01*
X158222993Y-127477004D01*
X158200471Y-127468946D01*
X158178847Y-127458718D01*
X158158330Y-127446421D01*
X158139117Y-127432171D01*
X158121393Y-127416107D01*
X158105329Y-127398383D01*
X158091079Y-127379170D01*
X158078782Y-127358653D01*
X158068554Y-127337029D01*
X158060496Y-127314507D01*
X158054684Y-127291303D01*
X158051174Y-127267642D01*
X158050000Y-127243750D01*
X158050000Y-126756250D01*
X158051174Y-126732358D01*
X158054684Y-126708697D01*
X158060496Y-126685493D01*
X158068554Y-126662971D01*
X158078782Y-126641347D01*
X158091079Y-126620830D01*
X158105329Y-126601617D01*
X158121393Y-126583893D01*
X158139117Y-126567829D01*
X158158330Y-126553579D01*
X158178847Y-126541282D01*
X158200471Y-126531054D01*
X158222993Y-126522996D01*
X158246197Y-126517184D01*
X158269858Y-126513674D01*
X158293750Y-126512500D01*
X159206250Y-126512500D01*
X159230142Y-126513674D01*
G37*
G36*
X159230142Y-128388674D02*
G01*
X159253803Y-128392184D01*
X159277007Y-128397996D01*
X159299529Y-128406054D01*
X159321153Y-128416282D01*
X159341670Y-128428579D01*
X159360883Y-128442829D01*
X159378607Y-128458893D01*
X159394671Y-128476617D01*
X159408921Y-128495830D01*
X159421218Y-128516347D01*
X159431446Y-128537971D01*
X159439504Y-128560493D01*
X159445316Y-128583697D01*
X159448826Y-128607358D01*
X159450000Y-128631250D01*
X159450000Y-129118750D01*
X159448826Y-129142642D01*
X159445316Y-129166303D01*
X159439504Y-129189507D01*
X159431446Y-129212029D01*
X159421218Y-129233653D01*
X159408921Y-129254170D01*
X159394671Y-129273383D01*
X159378607Y-129291107D01*
X159360883Y-129307171D01*
X159341670Y-129321421D01*
X159321153Y-129333718D01*
X159299529Y-129343946D01*
X159277007Y-129352004D01*
X159253803Y-129357816D01*
X159230142Y-129361326D01*
X159206250Y-129362500D01*
X158293750Y-129362500D01*
X158269858Y-129361326D01*
X158246197Y-129357816D01*
X158222993Y-129352004D01*
X158200471Y-129343946D01*
X158178847Y-129333718D01*
X158158330Y-129321421D01*
X158139117Y-129307171D01*
X158121393Y-129291107D01*
X158105329Y-129273383D01*
X158091079Y-129254170D01*
X158078782Y-129233653D01*
X158068554Y-129212029D01*
X158060496Y-129189507D01*
X158054684Y-129166303D01*
X158051174Y-129142642D01*
X158050000Y-129118750D01*
X158050000Y-128631250D01*
X158051174Y-128607358D01*
X158054684Y-128583697D01*
X158060496Y-128560493D01*
X158068554Y-128537971D01*
X158078782Y-128516347D01*
X158091079Y-128495830D01*
X158105329Y-128476617D01*
X158121393Y-128458893D01*
X158139117Y-128442829D01*
X158158330Y-128428579D01*
X158178847Y-128416282D01*
X158200471Y-128406054D01*
X158222993Y-128397996D01*
X158246197Y-128392184D01*
X158269858Y-128388674D01*
X158293750Y-128387500D01*
X159206250Y-128387500D01*
X159230142Y-128388674D01*
G37*
D13*
X156210000Y-118110000D03*
X153210000Y-118110000D03*
M02*
