M48
; DRILL file {KiCad (5.1.5)-3} date 4/27/2020 2:21:16 AM
; FORMAT={-:-/ absolute / inch / decimal}
; #@! TF.CreationDate,2020-04-27T02:21:16-07:00
; #@! TF.GenerationSoftware,Kicad,Pcbnew,(5.1.5)-3
; #@! TF.FileFunction,Plated,1,2,PTH
FMAT,2
INCH
T1C0.0157
T2C0.0276
T3C0.0315
T4C0.0394
T5C0.0500
T6C0.0540
%
G90
G05
T1
X4.0Y-3.2
X4.4Y-3.1
X4.6Y-3.05
X4.95Y-5.2
X5.0Y-5.15
X5.15Y-5.3
X5.35Y-4.2
X5.4Y-4.7
X5.45Y-3.3
X5.45Y-5.0
X5.55Y-3.55
X5.55Y-3.9
X5.65Y-3.25
X6.0Y-3.4
X6.0Y-4.8
T2
X5.3Y-5.25
X5.35Y-5.2
X5.4Y-5.25
T3
X3.2402Y-5.0
X3.3402Y-5.0
X3.4402Y-5.0
X3.5402Y-5.0
X3.6Y-3.1
X3.6402Y-5.0
X3.7Y-3.1
X3.7402Y-5.0
X3.8Y-3.1
X3.8402Y-5.0
X3.9Y-3.1
X3.9402Y-5.0
X4.0Y-3.1
X4.0402Y-5.0
X4.1Y-3.1
X4.1402Y-5.0
X4.2Y-3.1
X4.3Y-3.1
X4.3Y-5.0
X4.4Y-5.0
X4.5Y-3.1
X4.5Y-5.0
X4.6Y-3.1
X4.6Y-5.0
X4.7Y-3.1
X4.7Y-5.0
X4.8Y-3.1
X4.8Y-5.0
X4.9Y-3.1
X4.9Y-5.0
X5.0Y-3.1
X5.0Y-5.0
T4
X6.25Y-5.45
X6.05Y-5.45
T5
X4.7421Y-5.3
X4.8461Y-5.3
X4.95Y-5.3
T6
X5.8Y-5.25
X5.9Y-5.25
X6.0Y-5.25
T4
G00X5.3197Y-3.097
M15
G01X5.3197Y-3.1561
M16
G05
G00X5.7803Y-3.097
M15
G01X5.7803Y-3.1561
M16
G05
G00X5.9728Y-3.3039
M15
G01X5.9728Y-3.2449
M16
G05
G00X6.1756Y-3.3138
M15
G01X6.1244Y-3.3138
M16
G05
G00X6.1894Y-3.55
M15
G01X6.1106Y-3.55
M16
G05
G00X6.3272Y-3.3039
M15
G01X6.3272Y-3.2449
M16
G05
T0
M30
