G04 #@! TF.GenerationSoftware,KiCad,Pcbnew,(5.1.5)-3*
G04 #@! TF.CreationDate,2020-04-27T02:20:49-07:00*
G04 #@! TF.ProjectId,SolaRCharger,536f6c61-5243-4686-9172-6765722e6b69,rev?*
G04 #@! TF.SameCoordinates,Original*
G04 #@! TF.FileFunction,Copper,L2,Bot*
G04 #@! TF.FilePolarity,Positive*
%FSLAX46Y46*%
G04 Gerber Fmt 4.6, Leading zero omitted, Abs format (unit mm)*
G04 Created by KiCad (PCBNEW (5.1.5)-3) date 2020-04-27 02:20:49*
%MOMM*%
%LPD*%
G04 APERTURE LIST*
%ADD10O,1.600000X1.600000*%
%ADD11R,1.600000X1.600000*%
%ADD12O,2.000000X3.500000*%
%ADD13O,3.300000X2.000000*%
%ADD14R,4.000000X2.000000*%
%ADD15C,1.879600*%
%ADD16R,1.879600X1.879600*%
%ADD17C,1.778000*%
%ADD18O,1.200000X1.200000*%
%ADD19O,1.600000X1.200000*%
%ADD20R,1.700000X1.700000*%
%ADD21O,1.600000X4.000000*%
%ADD22C,0.800000*%
%ADD23C,0.250000*%
G04 APERTURE END LIST*
D10*
X124460000Y-127000000D03*
X127000000Y-127000000D03*
X87380000Y-127000000D03*
X127000000Y-78740000D03*
X89920000Y-127000000D03*
X124460000Y-78740000D03*
X92460000Y-127000000D03*
X121920000Y-78740000D03*
X95000000Y-127000000D03*
X119380000Y-78740000D03*
X97540000Y-127000000D03*
X116840000Y-78740000D03*
X100080000Y-127000000D03*
X114300000Y-78740000D03*
X102620000Y-127000000D03*
X109220000Y-78740000D03*
X105160000Y-127000000D03*
X106680000Y-78740000D03*
X109220000Y-127000000D03*
X104140000Y-78740000D03*
X111760000Y-127000000D03*
X101600000Y-78740000D03*
X114300000Y-127000000D03*
X99060000Y-78740000D03*
X116840000Y-127000000D03*
X96520000Y-78740000D03*
X119380000Y-127000000D03*
X93980000Y-78740000D03*
X121920000Y-127000000D03*
D11*
X91440000Y-78740000D03*
D10*
X84840000Y-127000000D03*
X82300000Y-127000000D03*
D12*
X151710000Y-83170000D03*
X160710000Y-83170000D03*
D13*
X156210000Y-84170000D03*
D14*
X156210000Y-90170000D03*
D15*
X152400000Y-133350000D03*
X149860000Y-133350000D03*
D16*
X147320000Y-133350000D03*
D17*
X125730000Y-134620000D03*
X123090000Y-134620000D03*
X120450001Y-134620000D03*
D18*
X134620000Y-133350000D03*
X135890000Y-132080000D03*
D19*
X137160000Y-133350000D03*
D20*
X153670000Y-138430000D03*
D21*
X146820000Y-79415000D03*
X135120000Y-79415000D03*
D20*
X158750000Y-138430000D03*
D22*
X116840000Y-77470000D03*
X143510000Y-82550000D03*
X130810000Y-134620000D03*
X138430000Y-127000000D03*
X111760000Y-78740000D03*
X125730000Y-132080000D03*
X137160000Y-119380000D03*
X135890000Y-106680000D03*
X152400000Y-86360000D03*
X138430000Y-83820000D03*
X140970000Y-90170000D03*
X140970000Y-99060000D03*
X101600000Y-81280000D03*
X127000000Y-130810000D03*
X152400000Y-121920000D03*
D23*
X138030001Y-77070001D02*
X143510000Y-82550000D01*
X116840000Y-77470000D02*
X117239999Y-77070001D01*
X117239999Y-77070001D02*
X138030001Y-77070001D01*
X130810000Y-134620000D02*
X138430000Y-127000000D01*
X125730000Y-106483002D02*
X125730000Y-132080000D01*
X109945001Y-80554999D02*
X101251999Y-80554999D01*
X100874999Y-81628001D02*
X125730000Y-106483002D01*
X101251999Y-80554999D02*
X100874999Y-80931999D01*
X111760000Y-78740000D02*
X109945001Y-80554999D01*
X100874999Y-80931999D02*
X100874999Y-81628001D01*
X137160000Y-119380000D02*
X137160000Y-107950000D01*
X137160000Y-107950000D02*
X135890000Y-106680000D01*
X152400000Y-86360000D02*
X140970000Y-86360000D01*
X140970000Y-86360000D02*
X138430000Y-83820000D01*
X140970000Y-90170000D02*
X140970000Y-86360000D01*
X140970000Y-99060000D02*
X123190000Y-81280000D01*
X123190000Y-81280000D02*
X101600000Y-81280000D01*
X127000000Y-130810000D02*
X135890000Y-121920000D01*
X135890000Y-121920000D02*
X152400000Y-121920000D01*
M02*
