G04 #@! TF.GenerationSoftware,KiCad,Pcbnew,(5.1.5)-3*
G04 #@! TF.CreationDate,2020-04-27T02:20:49-07:00*
G04 #@! TF.ProjectId,SolaRCharger,536f6c61-5243-4686-9172-6765722e6b69,rev?*
G04 #@! TF.SameCoordinates,Original*
G04 #@! TF.FileFunction,Soldermask,Top*
G04 #@! TF.FilePolarity,Negative*
%FSLAX46Y46*%
G04 Gerber Fmt 4.6, Leading zero omitted, Abs format (unit mm)*
G04 Created by KiCad (PCBNEW (5.1.5)-3) date 2020-04-27 02:20:49*
%MOMM*%
%LPD*%
G04 APERTURE LIST*
%ADD10C,0.100000*%
G04 APERTURE END LIST*
D10*
G36*
X138801968Y-140223565D02*
G01*
X138840638Y-140235296D01*
X138876277Y-140254346D01*
X138907517Y-140279983D01*
X138933154Y-140311223D01*
X138952204Y-140346862D01*
X138963935Y-140385532D01*
X138968500Y-140431888D01*
X138968500Y-141508112D01*
X138963935Y-141554468D01*
X138952204Y-141593138D01*
X138933154Y-141628777D01*
X138907517Y-141660017D01*
X138876277Y-141685654D01*
X138840638Y-141704704D01*
X138801968Y-141716435D01*
X138755612Y-141721000D01*
X138104388Y-141721000D01*
X138058032Y-141716435D01*
X138019362Y-141704704D01*
X137983723Y-141685654D01*
X137952483Y-141660017D01*
X137926846Y-141628777D01*
X137907796Y-141593138D01*
X137896065Y-141554468D01*
X137891500Y-141508112D01*
X137891500Y-140431888D01*
X137896065Y-140385532D01*
X137907796Y-140346862D01*
X137926846Y-140311223D01*
X137952483Y-140279983D01*
X137983723Y-140254346D01*
X138019362Y-140235296D01*
X138058032Y-140223565D01*
X138104388Y-140219000D01*
X138755612Y-140219000D01*
X138801968Y-140223565D01*
G37*
G36*
X140676968Y-140223565D02*
G01*
X140715638Y-140235296D01*
X140751277Y-140254346D01*
X140782517Y-140279983D01*
X140808154Y-140311223D01*
X140827204Y-140346862D01*
X140838935Y-140385532D01*
X140843500Y-140431888D01*
X140843500Y-141508112D01*
X140838935Y-141554468D01*
X140827204Y-141593138D01*
X140808154Y-141628777D01*
X140782517Y-141660017D01*
X140751277Y-141685654D01*
X140715638Y-141704704D01*
X140676968Y-141716435D01*
X140630612Y-141721000D01*
X139979388Y-141721000D01*
X139933032Y-141716435D01*
X139894362Y-141704704D01*
X139858723Y-141685654D01*
X139827483Y-141660017D01*
X139801846Y-141628777D01*
X139782796Y-141593138D01*
X139771065Y-141554468D01*
X139766500Y-141508112D01*
X139766500Y-140431888D01*
X139771065Y-140385532D01*
X139782796Y-140346862D01*
X139801846Y-140311223D01*
X139827483Y-140279983D01*
X139858723Y-140254346D01*
X139894362Y-140235296D01*
X139933032Y-140223565D01*
X139979388Y-140219000D01*
X140630612Y-140219000D01*
X140676968Y-140223565D01*
G37*
G36*
X154571000Y-139331000D02*
G01*
X152769000Y-139331000D01*
X152769000Y-137529000D01*
X154571000Y-137529000D01*
X154571000Y-139331000D01*
G37*
G36*
X159651000Y-139331000D02*
G01*
X157849000Y-139331000D01*
X157849000Y-137529000D01*
X159651000Y-137529000D01*
X159651000Y-139331000D01*
G37*
G36*
X126004187Y-133716123D02*
G01*
X126131449Y-133768837D01*
X126175257Y-133786983D01*
X126223652Y-133819320D01*
X126329214Y-133889854D01*
X126460146Y-134020786D01*
X126563018Y-134174745D01*
X126633877Y-134345813D01*
X126670000Y-134527417D01*
X126670000Y-134712583D01*
X126633877Y-134894187D01*
X126563018Y-135065255D01*
X126563017Y-135065257D01*
X126460145Y-135219215D01*
X126329215Y-135350145D01*
X126175257Y-135453017D01*
X126175256Y-135453018D01*
X126175255Y-135453018D01*
X126004187Y-135523877D01*
X125822583Y-135560000D01*
X125637417Y-135560000D01*
X125455813Y-135523877D01*
X125284745Y-135453018D01*
X125284744Y-135453018D01*
X125284743Y-135453017D01*
X125130785Y-135350145D01*
X124999855Y-135219215D01*
X124896983Y-135065257D01*
X124896982Y-135065255D01*
X124826123Y-134894187D01*
X124790000Y-134712583D01*
X124790000Y-134527417D01*
X124826123Y-134345813D01*
X124896982Y-134174745D01*
X124999854Y-134020786D01*
X125130786Y-133889854D01*
X125236348Y-133819320D01*
X125284743Y-133786983D01*
X125328551Y-133768837D01*
X125455813Y-133716123D01*
X125637417Y-133680000D01*
X125822583Y-133680000D01*
X126004187Y-133716123D01*
G37*
G36*
X120724188Y-133716123D02*
G01*
X120851450Y-133768837D01*
X120895258Y-133786983D01*
X120943653Y-133819320D01*
X121049215Y-133889854D01*
X121180147Y-134020786D01*
X121283019Y-134174745D01*
X121353878Y-134345813D01*
X121390001Y-134527417D01*
X121390001Y-134712583D01*
X121353878Y-134894187D01*
X121283019Y-135065255D01*
X121283018Y-135065257D01*
X121180146Y-135219215D01*
X121049216Y-135350145D01*
X120895258Y-135453017D01*
X120895257Y-135453018D01*
X120895256Y-135453018D01*
X120724188Y-135523877D01*
X120542584Y-135560000D01*
X120357418Y-135560000D01*
X120175814Y-135523877D01*
X120004746Y-135453018D01*
X120004745Y-135453018D01*
X120004744Y-135453017D01*
X119850786Y-135350145D01*
X119719856Y-135219215D01*
X119616984Y-135065257D01*
X119616983Y-135065255D01*
X119546124Y-134894187D01*
X119510001Y-134712583D01*
X119510001Y-134527417D01*
X119546124Y-134345813D01*
X119616983Y-134174745D01*
X119719855Y-134020786D01*
X119850787Y-133889854D01*
X119956349Y-133819320D01*
X120004744Y-133786983D01*
X120048552Y-133768837D01*
X120175814Y-133716123D01*
X120357418Y-133680000D01*
X120542584Y-133680000D01*
X120724188Y-133716123D01*
G37*
G36*
X123364187Y-133716123D02*
G01*
X123491449Y-133768837D01*
X123535257Y-133786983D01*
X123583652Y-133819320D01*
X123689214Y-133889854D01*
X123820146Y-134020786D01*
X123923018Y-134174745D01*
X123993877Y-134345813D01*
X124030000Y-134527417D01*
X124030000Y-134712583D01*
X123993877Y-134894187D01*
X123923018Y-135065255D01*
X123923017Y-135065257D01*
X123820145Y-135219215D01*
X123689215Y-135350145D01*
X123535257Y-135453017D01*
X123535256Y-135453018D01*
X123535255Y-135453018D01*
X123364187Y-135523877D01*
X123182583Y-135560000D01*
X122997417Y-135560000D01*
X122815813Y-135523877D01*
X122644745Y-135453018D01*
X122644744Y-135453018D01*
X122644743Y-135453017D01*
X122490785Y-135350145D01*
X122359855Y-135219215D01*
X122256983Y-135065257D01*
X122256982Y-135065255D01*
X122186123Y-134894187D01*
X122150000Y-134712583D01*
X122150000Y-134527417D01*
X122186123Y-134345813D01*
X122256982Y-134174745D01*
X122359854Y-134020786D01*
X122490786Y-133889854D01*
X122596348Y-133819320D01*
X122644743Y-133786983D01*
X122688551Y-133768837D01*
X122815813Y-133716123D01*
X122997417Y-133680000D01*
X123182583Y-133680000D01*
X123364187Y-133716123D01*
G37*
G36*
X159334468Y-133421065D02*
G01*
X159373138Y-133432796D01*
X159408777Y-133451846D01*
X159440017Y-133477483D01*
X159465654Y-133508723D01*
X159484704Y-133544362D01*
X159496435Y-133583032D01*
X159501000Y-133629388D01*
X159501000Y-134280612D01*
X159496435Y-134326968D01*
X159484704Y-134365638D01*
X159465654Y-134401277D01*
X159440017Y-134432517D01*
X159408777Y-134458154D01*
X159373138Y-134477204D01*
X159334468Y-134488935D01*
X159288112Y-134493500D01*
X158211888Y-134493500D01*
X158165532Y-134488935D01*
X158126862Y-134477204D01*
X158091223Y-134458154D01*
X158059983Y-134432517D01*
X158034346Y-134401277D01*
X158015296Y-134365638D01*
X158003565Y-134326968D01*
X157999000Y-134280612D01*
X157999000Y-133629388D01*
X158003565Y-133583032D01*
X158015296Y-133544362D01*
X158034346Y-133508723D01*
X158059983Y-133477483D01*
X158091223Y-133451846D01*
X158126862Y-133432796D01*
X158165532Y-133421065D01*
X158211888Y-133416500D01*
X159288112Y-133416500D01*
X159334468Y-133421065D01*
G37*
G36*
X152689003Y-132397275D02*
G01*
X152689005Y-132397276D01*
X152689006Y-132397276D01*
X152869320Y-132471964D01*
X153031598Y-132580395D01*
X153169605Y-132718402D01*
X153278036Y-132880680D01*
X153352724Y-133060994D01*
X153352725Y-133060997D01*
X153390800Y-133252413D01*
X153390800Y-133447587D01*
X153354638Y-133629388D01*
X153352724Y-133639006D01*
X153278036Y-133819320D01*
X153169605Y-133981598D01*
X153031598Y-134119605D01*
X152869320Y-134228036D01*
X152689006Y-134302724D01*
X152689005Y-134302724D01*
X152689003Y-134302725D01*
X152497587Y-134340800D01*
X152302413Y-134340800D01*
X152110997Y-134302725D01*
X152110995Y-134302724D01*
X152110994Y-134302724D01*
X151930680Y-134228036D01*
X151768402Y-134119605D01*
X151630395Y-133981598D01*
X151521964Y-133819320D01*
X151447276Y-133639006D01*
X151445363Y-133629388D01*
X151409200Y-133447587D01*
X151409200Y-133252413D01*
X151447275Y-133060997D01*
X151447276Y-133060994D01*
X151521964Y-132880680D01*
X151630395Y-132718402D01*
X151768402Y-132580395D01*
X151930680Y-132471964D01*
X152110994Y-132397276D01*
X152110995Y-132397276D01*
X152110997Y-132397275D01*
X152302413Y-132359200D01*
X152497587Y-132359200D01*
X152689003Y-132397275D01*
G37*
G36*
X150149003Y-132397275D02*
G01*
X150149005Y-132397276D01*
X150149006Y-132397276D01*
X150329320Y-132471964D01*
X150491598Y-132580395D01*
X150629605Y-132718402D01*
X150738036Y-132880680D01*
X150812724Y-133060994D01*
X150812725Y-133060997D01*
X150850800Y-133252413D01*
X150850800Y-133447587D01*
X150814638Y-133629388D01*
X150812724Y-133639006D01*
X150738036Y-133819320D01*
X150629605Y-133981598D01*
X150491598Y-134119605D01*
X150329320Y-134228036D01*
X150149006Y-134302724D01*
X150149005Y-134302724D01*
X150149003Y-134302725D01*
X149957587Y-134340800D01*
X149762413Y-134340800D01*
X149570997Y-134302725D01*
X149570995Y-134302724D01*
X149570994Y-134302724D01*
X149390680Y-134228036D01*
X149228402Y-134119605D01*
X149090395Y-133981598D01*
X148981964Y-133819320D01*
X148907276Y-133639006D01*
X148905363Y-133629388D01*
X148869200Y-133447587D01*
X148869200Y-133252413D01*
X148907275Y-133060997D01*
X148907276Y-133060994D01*
X148981964Y-132880680D01*
X149090395Y-132718402D01*
X149228402Y-132580395D01*
X149390680Y-132471964D01*
X149570994Y-132397276D01*
X149570995Y-132397276D01*
X149570997Y-132397275D01*
X149762413Y-132359200D01*
X149957587Y-132359200D01*
X150149003Y-132397275D01*
G37*
G36*
X148310800Y-134340800D02*
G01*
X146329200Y-134340800D01*
X146329200Y-132359200D01*
X148310800Y-132359200D01*
X148310800Y-134340800D01*
G37*
G36*
X134719225Y-132705983D02*
G01*
X134809890Y-132724017D01*
X134928364Y-132773091D01*
X134977756Y-132806094D01*
X135034988Y-132844335D01*
X135125665Y-132935012D01*
X135196910Y-133041638D01*
X135245983Y-133160110D01*
X135271000Y-133285881D01*
X135271000Y-133414119D01*
X135245983Y-133539890D01*
X135204928Y-133639006D01*
X135196909Y-133658364D01*
X135125665Y-133764988D01*
X135034988Y-133855665D01*
X134928364Y-133926909D01*
X134928363Y-133926910D01*
X134928362Y-133926910D01*
X134809890Y-133975983D01*
X134684119Y-134001000D01*
X134555881Y-134001000D01*
X134430110Y-133975983D01*
X134311638Y-133926910D01*
X134311637Y-133926910D01*
X134311636Y-133926909D01*
X134205012Y-133855665D01*
X134114335Y-133764988D01*
X134043091Y-133658364D01*
X134035073Y-133639006D01*
X133994017Y-133539890D01*
X133969000Y-133414119D01*
X133969000Y-133285881D01*
X133994017Y-133160110D01*
X134043090Y-133041638D01*
X134114335Y-132935012D01*
X134205012Y-132844335D01*
X134262244Y-132806094D01*
X134311636Y-132773091D01*
X134430110Y-132724017D01*
X134520775Y-132705983D01*
X134555881Y-132699000D01*
X134684119Y-132699000D01*
X134719225Y-132705983D01*
G37*
G36*
X137423855Y-132702140D02*
G01*
X137487618Y-132708420D01*
X137562054Y-132731000D01*
X137610336Y-132745646D01*
X137723425Y-132806094D01*
X137822554Y-132887446D01*
X137903906Y-132986575D01*
X137964354Y-133099664D01*
X137964355Y-133099668D01*
X138001580Y-133222382D01*
X138014149Y-133350000D01*
X138001580Y-133477618D01*
X137982690Y-133539890D01*
X137964354Y-133600336D01*
X137903906Y-133713425D01*
X137822554Y-133812554D01*
X137723425Y-133893906D01*
X137610336Y-133954354D01*
X137578404Y-133964040D01*
X137487618Y-133991580D01*
X137423855Y-133997860D01*
X137391974Y-134001000D01*
X136928026Y-134001000D01*
X136896145Y-133997860D01*
X136832382Y-133991580D01*
X136741596Y-133964040D01*
X136709664Y-133954354D01*
X136596575Y-133893906D01*
X136497446Y-133812554D01*
X136416094Y-133713425D01*
X136355646Y-133600336D01*
X136337310Y-133539890D01*
X136318420Y-133477618D01*
X136305851Y-133350000D01*
X136318420Y-133222382D01*
X136355645Y-133099668D01*
X136355646Y-133099664D01*
X136416094Y-132986575D01*
X136497446Y-132887446D01*
X136596575Y-132806094D01*
X136709664Y-132745646D01*
X136757946Y-132731000D01*
X136832382Y-132708420D01*
X136896145Y-132702140D01*
X136928026Y-132699000D01*
X137391974Y-132699000D01*
X137423855Y-132702140D01*
G37*
G36*
X103454468Y-132816065D02*
G01*
X103493138Y-132827796D01*
X103528777Y-132846846D01*
X103560017Y-132872483D01*
X103585654Y-132903723D01*
X103604704Y-132939362D01*
X103616435Y-132978032D01*
X103621000Y-133024388D01*
X103621000Y-133675612D01*
X103616435Y-133721968D01*
X103604704Y-133760638D01*
X103585654Y-133796277D01*
X103560017Y-133827517D01*
X103528777Y-133853154D01*
X103493138Y-133872204D01*
X103454468Y-133883935D01*
X103408112Y-133888500D01*
X102331888Y-133888500D01*
X102285532Y-133883935D01*
X102246862Y-133872204D01*
X102211223Y-133853154D01*
X102179983Y-133827517D01*
X102154346Y-133796277D01*
X102135296Y-133760638D01*
X102123565Y-133721968D01*
X102119000Y-133675612D01*
X102119000Y-133024388D01*
X102123565Y-132978032D01*
X102135296Y-132939362D01*
X102154346Y-132903723D01*
X102179983Y-132872483D01*
X102211223Y-132846846D01*
X102246862Y-132827796D01*
X102285532Y-132816065D01*
X102331888Y-132811500D01*
X103408112Y-132811500D01*
X103454468Y-132816065D01*
G37*
G36*
X136079890Y-131454017D02*
G01*
X136198364Y-131503091D01*
X136304988Y-131574335D01*
X136395665Y-131665012D01*
X136466909Y-131771636D01*
X136515983Y-131890110D01*
X136541000Y-132015882D01*
X136541000Y-132144118D01*
X136515983Y-132269890D01*
X136466909Y-132388364D01*
X136395665Y-132494988D01*
X136304988Y-132585665D01*
X136198364Y-132656909D01*
X136198363Y-132656910D01*
X136198362Y-132656910D01*
X136079890Y-132705983D01*
X135954119Y-132731000D01*
X135825881Y-132731000D01*
X135700110Y-132705983D01*
X135581638Y-132656910D01*
X135581637Y-132656910D01*
X135581636Y-132656909D01*
X135475012Y-132585665D01*
X135384335Y-132494988D01*
X135313091Y-132388364D01*
X135264017Y-132269890D01*
X135239000Y-132144118D01*
X135239000Y-132015882D01*
X135264017Y-131890110D01*
X135313091Y-131771636D01*
X135384335Y-131665012D01*
X135475012Y-131574335D01*
X135581636Y-131503091D01*
X135700110Y-131454017D01*
X135825881Y-131429000D01*
X135954119Y-131429000D01*
X136079890Y-131454017D01*
G37*
G36*
X159334468Y-131546065D02*
G01*
X159373138Y-131557796D01*
X159408777Y-131576846D01*
X159440017Y-131602483D01*
X159465654Y-131633723D01*
X159484704Y-131669362D01*
X159496435Y-131708032D01*
X159501000Y-131754388D01*
X159501000Y-132405612D01*
X159496435Y-132451968D01*
X159484704Y-132490638D01*
X159465654Y-132526277D01*
X159440017Y-132557517D01*
X159408777Y-132583154D01*
X159373138Y-132602204D01*
X159334468Y-132613935D01*
X159288112Y-132618500D01*
X158211888Y-132618500D01*
X158165532Y-132613935D01*
X158126862Y-132602204D01*
X158091223Y-132583154D01*
X158059983Y-132557517D01*
X158034346Y-132526277D01*
X158015296Y-132490638D01*
X158003565Y-132451968D01*
X157999000Y-132405612D01*
X157999000Y-131754388D01*
X158003565Y-131708032D01*
X158015296Y-131669362D01*
X158034346Y-131633723D01*
X158059983Y-131602483D01*
X158091223Y-131576846D01*
X158126862Y-131557796D01*
X158165532Y-131546065D01*
X158211888Y-131541500D01*
X159288112Y-131541500D01*
X159334468Y-131546065D01*
G37*
G36*
X103454468Y-130941065D02*
G01*
X103493138Y-130952796D01*
X103528777Y-130971846D01*
X103560017Y-130997483D01*
X103585654Y-131028723D01*
X103604704Y-131064362D01*
X103616435Y-131103032D01*
X103621000Y-131149388D01*
X103621000Y-131800612D01*
X103616435Y-131846968D01*
X103604704Y-131885638D01*
X103585654Y-131921277D01*
X103560017Y-131952517D01*
X103528777Y-131978154D01*
X103493138Y-131997204D01*
X103454468Y-132008935D01*
X103408112Y-132013500D01*
X102331888Y-132013500D01*
X102285532Y-132008935D01*
X102246862Y-131997204D01*
X102211223Y-131978154D01*
X102179983Y-131952517D01*
X102154346Y-131921277D01*
X102135296Y-131885638D01*
X102123565Y-131846968D01*
X102119000Y-131800612D01*
X102119000Y-131149388D01*
X102123565Y-131103032D01*
X102135296Y-131064362D01*
X102154346Y-131028723D01*
X102179983Y-130997483D01*
X102211223Y-130971846D01*
X102246862Y-130952796D01*
X102285532Y-130941065D01*
X102331888Y-130936500D01*
X103408112Y-130936500D01*
X103454468Y-130941065D01*
G37*
G36*
X159334468Y-128341065D02*
G01*
X159373138Y-128352796D01*
X159408777Y-128371846D01*
X159440017Y-128397483D01*
X159465654Y-128428723D01*
X159484704Y-128464362D01*
X159496435Y-128503032D01*
X159501000Y-128549388D01*
X159501000Y-129200612D01*
X159496435Y-129246968D01*
X159484704Y-129285638D01*
X159465654Y-129321277D01*
X159440017Y-129352517D01*
X159408777Y-129378154D01*
X159373138Y-129397204D01*
X159334468Y-129408935D01*
X159288112Y-129413500D01*
X158211888Y-129413500D01*
X158165532Y-129408935D01*
X158126862Y-129397204D01*
X158091223Y-129378154D01*
X158059983Y-129352517D01*
X158034346Y-129321277D01*
X158015296Y-129285638D01*
X158003565Y-129246968D01*
X157999000Y-129200612D01*
X157999000Y-128549388D01*
X158003565Y-128503032D01*
X158015296Y-128464362D01*
X158034346Y-128428723D01*
X158059983Y-128397483D01*
X158091223Y-128371846D01*
X158126862Y-128352796D01*
X158165532Y-128341065D01*
X158211888Y-128336500D01*
X159288112Y-128336500D01*
X159334468Y-128341065D01*
G37*
G36*
X124708228Y-126181703D02*
G01*
X124863100Y-126245853D01*
X125002481Y-126338985D01*
X125121015Y-126457519D01*
X125214147Y-126596900D01*
X125278297Y-126751772D01*
X125311000Y-126916184D01*
X125311000Y-127083816D01*
X125278297Y-127248228D01*
X125214147Y-127403100D01*
X125121015Y-127542481D01*
X125002481Y-127661015D01*
X124863100Y-127754147D01*
X124708228Y-127818297D01*
X124543816Y-127851000D01*
X124376184Y-127851000D01*
X124211772Y-127818297D01*
X124056900Y-127754147D01*
X123917519Y-127661015D01*
X123798985Y-127542481D01*
X123705853Y-127403100D01*
X123641703Y-127248228D01*
X123609000Y-127083816D01*
X123609000Y-126916184D01*
X123641703Y-126751772D01*
X123705853Y-126596900D01*
X123798985Y-126457519D01*
X123917519Y-126338985D01*
X124056900Y-126245853D01*
X124211772Y-126181703D01*
X124376184Y-126149000D01*
X124543816Y-126149000D01*
X124708228Y-126181703D01*
G37*
G36*
X82548228Y-126181703D02*
G01*
X82703100Y-126245853D01*
X82842481Y-126338985D01*
X82961015Y-126457519D01*
X83054147Y-126596900D01*
X83118297Y-126751772D01*
X83151000Y-126916184D01*
X83151000Y-127083816D01*
X83118297Y-127248228D01*
X83054147Y-127403100D01*
X82961015Y-127542481D01*
X82842481Y-127661015D01*
X82703100Y-127754147D01*
X82548228Y-127818297D01*
X82383816Y-127851000D01*
X82216184Y-127851000D01*
X82051772Y-127818297D01*
X81896900Y-127754147D01*
X81757519Y-127661015D01*
X81638985Y-127542481D01*
X81545853Y-127403100D01*
X81481703Y-127248228D01*
X81449000Y-127083816D01*
X81449000Y-126916184D01*
X81481703Y-126751772D01*
X81545853Y-126596900D01*
X81638985Y-126457519D01*
X81757519Y-126338985D01*
X81896900Y-126245853D01*
X82051772Y-126181703D01*
X82216184Y-126149000D01*
X82383816Y-126149000D01*
X82548228Y-126181703D01*
G37*
G36*
X85088228Y-126181703D02*
G01*
X85243100Y-126245853D01*
X85382481Y-126338985D01*
X85501015Y-126457519D01*
X85594147Y-126596900D01*
X85658297Y-126751772D01*
X85691000Y-126916184D01*
X85691000Y-127083816D01*
X85658297Y-127248228D01*
X85594147Y-127403100D01*
X85501015Y-127542481D01*
X85382481Y-127661015D01*
X85243100Y-127754147D01*
X85088228Y-127818297D01*
X84923816Y-127851000D01*
X84756184Y-127851000D01*
X84591772Y-127818297D01*
X84436900Y-127754147D01*
X84297519Y-127661015D01*
X84178985Y-127542481D01*
X84085853Y-127403100D01*
X84021703Y-127248228D01*
X83989000Y-127083816D01*
X83989000Y-126916184D01*
X84021703Y-126751772D01*
X84085853Y-126596900D01*
X84178985Y-126457519D01*
X84297519Y-126338985D01*
X84436900Y-126245853D01*
X84591772Y-126181703D01*
X84756184Y-126149000D01*
X84923816Y-126149000D01*
X85088228Y-126181703D01*
G37*
G36*
X122168228Y-126181703D02*
G01*
X122323100Y-126245853D01*
X122462481Y-126338985D01*
X122581015Y-126457519D01*
X122674147Y-126596900D01*
X122738297Y-126751772D01*
X122771000Y-126916184D01*
X122771000Y-127083816D01*
X122738297Y-127248228D01*
X122674147Y-127403100D01*
X122581015Y-127542481D01*
X122462481Y-127661015D01*
X122323100Y-127754147D01*
X122168228Y-127818297D01*
X122003816Y-127851000D01*
X121836184Y-127851000D01*
X121671772Y-127818297D01*
X121516900Y-127754147D01*
X121377519Y-127661015D01*
X121258985Y-127542481D01*
X121165853Y-127403100D01*
X121101703Y-127248228D01*
X121069000Y-127083816D01*
X121069000Y-126916184D01*
X121101703Y-126751772D01*
X121165853Y-126596900D01*
X121258985Y-126457519D01*
X121377519Y-126338985D01*
X121516900Y-126245853D01*
X121671772Y-126181703D01*
X121836184Y-126149000D01*
X122003816Y-126149000D01*
X122168228Y-126181703D01*
G37*
G36*
X119628228Y-126181703D02*
G01*
X119783100Y-126245853D01*
X119922481Y-126338985D01*
X120041015Y-126457519D01*
X120134147Y-126596900D01*
X120198297Y-126751772D01*
X120231000Y-126916184D01*
X120231000Y-127083816D01*
X120198297Y-127248228D01*
X120134147Y-127403100D01*
X120041015Y-127542481D01*
X119922481Y-127661015D01*
X119783100Y-127754147D01*
X119628228Y-127818297D01*
X119463816Y-127851000D01*
X119296184Y-127851000D01*
X119131772Y-127818297D01*
X118976900Y-127754147D01*
X118837519Y-127661015D01*
X118718985Y-127542481D01*
X118625853Y-127403100D01*
X118561703Y-127248228D01*
X118529000Y-127083816D01*
X118529000Y-126916184D01*
X118561703Y-126751772D01*
X118625853Y-126596900D01*
X118718985Y-126457519D01*
X118837519Y-126338985D01*
X118976900Y-126245853D01*
X119131772Y-126181703D01*
X119296184Y-126149000D01*
X119463816Y-126149000D01*
X119628228Y-126181703D01*
G37*
G36*
X117088228Y-126181703D02*
G01*
X117243100Y-126245853D01*
X117382481Y-126338985D01*
X117501015Y-126457519D01*
X117594147Y-126596900D01*
X117658297Y-126751772D01*
X117691000Y-126916184D01*
X117691000Y-127083816D01*
X117658297Y-127248228D01*
X117594147Y-127403100D01*
X117501015Y-127542481D01*
X117382481Y-127661015D01*
X117243100Y-127754147D01*
X117088228Y-127818297D01*
X116923816Y-127851000D01*
X116756184Y-127851000D01*
X116591772Y-127818297D01*
X116436900Y-127754147D01*
X116297519Y-127661015D01*
X116178985Y-127542481D01*
X116085853Y-127403100D01*
X116021703Y-127248228D01*
X115989000Y-127083816D01*
X115989000Y-126916184D01*
X116021703Y-126751772D01*
X116085853Y-126596900D01*
X116178985Y-126457519D01*
X116297519Y-126338985D01*
X116436900Y-126245853D01*
X116591772Y-126181703D01*
X116756184Y-126149000D01*
X116923816Y-126149000D01*
X117088228Y-126181703D01*
G37*
G36*
X114548228Y-126181703D02*
G01*
X114703100Y-126245853D01*
X114842481Y-126338985D01*
X114961015Y-126457519D01*
X115054147Y-126596900D01*
X115118297Y-126751772D01*
X115151000Y-126916184D01*
X115151000Y-127083816D01*
X115118297Y-127248228D01*
X115054147Y-127403100D01*
X114961015Y-127542481D01*
X114842481Y-127661015D01*
X114703100Y-127754147D01*
X114548228Y-127818297D01*
X114383816Y-127851000D01*
X114216184Y-127851000D01*
X114051772Y-127818297D01*
X113896900Y-127754147D01*
X113757519Y-127661015D01*
X113638985Y-127542481D01*
X113545853Y-127403100D01*
X113481703Y-127248228D01*
X113449000Y-127083816D01*
X113449000Y-126916184D01*
X113481703Y-126751772D01*
X113545853Y-126596900D01*
X113638985Y-126457519D01*
X113757519Y-126338985D01*
X113896900Y-126245853D01*
X114051772Y-126181703D01*
X114216184Y-126149000D01*
X114383816Y-126149000D01*
X114548228Y-126181703D01*
G37*
G36*
X112008228Y-126181703D02*
G01*
X112163100Y-126245853D01*
X112302481Y-126338985D01*
X112421015Y-126457519D01*
X112514147Y-126596900D01*
X112578297Y-126751772D01*
X112611000Y-126916184D01*
X112611000Y-127083816D01*
X112578297Y-127248228D01*
X112514147Y-127403100D01*
X112421015Y-127542481D01*
X112302481Y-127661015D01*
X112163100Y-127754147D01*
X112008228Y-127818297D01*
X111843816Y-127851000D01*
X111676184Y-127851000D01*
X111511772Y-127818297D01*
X111356900Y-127754147D01*
X111217519Y-127661015D01*
X111098985Y-127542481D01*
X111005853Y-127403100D01*
X110941703Y-127248228D01*
X110909000Y-127083816D01*
X110909000Y-126916184D01*
X110941703Y-126751772D01*
X111005853Y-126596900D01*
X111098985Y-126457519D01*
X111217519Y-126338985D01*
X111356900Y-126245853D01*
X111511772Y-126181703D01*
X111676184Y-126149000D01*
X111843816Y-126149000D01*
X112008228Y-126181703D01*
G37*
G36*
X109468228Y-126181703D02*
G01*
X109623100Y-126245853D01*
X109762481Y-126338985D01*
X109881015Y-126457519D01*
X109974147Y-126596900D01*
X110038297Y-126751772D01*
X110071000Y-126916184D01*
X110071000Y-127083816D01*
X110038297Y-127248228D01*
X109974147Y-127403100D01*
X109881015Y-127542481D01*
X109762481Y-127661015D01*
X109623100Y-127754147D01*
X109468228Y-127818297D01*
X109303816Y-127851000D01*
X109136184Y-127851000D01*
X108971772Y-127818297D01*
X108816900Y-127754147D01*
X108677519Y-127661015D01*
X108558985Y-127542481D01*
X108465853Y-127403100D01*
X108401703Y-127248228D01*
X108369000Y-127083816D01*
X108369000Y-126916184D01*
X108401703Y-126751772D01*
X108465853Y-126596900D01*
X108558985Y-126457519D01*
X108677519Y-126338985D01*
X108816900Y-126245853D01*
X108971772Y-126181703D01*
X109136184Y-126149000D01*
X109303816Y-126149000D01*
X109468228Y-126181703D01*
G37*
G36*
X105408228Y-126181703D02*
G01*
X105563100Y-126245853D01*
X105702481Y-126338985D01*
X105821015Y-126457519D01*
X105914147Y-126596900D01*
X105978297Y-126751772D01*
X106011000Y-126916184D01*
X106011000Y-127083816D01*
X105978297Y-127248228D01*
X105914147Y-127403100D01*
X105821015Y-127542481D01*
X105702481Y-127661015D01*
X105563100Y-127754147D01*
X105408228Y-127818297D01*
X105243816Y-127851000D01*
X105076184Y-127851000D01*
X104911772Y-127818297D01*
X104756900Y-127754147D01*
X104617519Y-127661015D01*
X104498985Y-127542481D01*
X104405853Y-127403100D01*
X104341703Y-127248228D01*
X104309000Y-127083816D01*
X104309000Y-126916184D01*
X104341703Y-126751772D01*
X104405853Y-126596900D01*
X104498985Y-126457519D01*
X104617519Y-126338985D01*
X104756900Y-126245853D01*
X104911772Y-126181703D01*
X105076184Y-126149000D01*
X105243816Y-126149000D01*
X105408228Y-126181703D01*
G37*
G36*
X90168228Y-126181703D02*
G01*
X90323100Y-126245853D01*
X90462481Y-126338985D01*
X90581015Y-126457519D01*
X90674147Y-126596900D01*
X90738297Y-126751772D01*
X90771000Y-126916184D01*
X90771000Y-127083816D01*
X90738297Y-127248228D01*
X90674147Y-127403100D01*
X90581015Y-127542481D01*
X90462481Y-127661015D01*
X90323100Y-127754147D01*
X90168228Y-127818297D01*
X90003816Y-127851000D01*
X89836184Y-127851000D01*
X89671772Y-127818297D01*
X89516900Y-127754147D01*
X89377519Y-127661015D01*
X89258985Y-127542481D01*
X89165853Y-127403100D01*
X89101703Y-127248228D01*
X89069000Y-127083816D01*
X89069000Y-126916184D01*
X89101703Y-126751772D01*
X89165853Y-126596900D01*
X89258985Y-126457519D01*
X89377519Y-126338985D01*
X89516900Y-126245853D01*
X89671772Y-126181703D01*
X89836184Y-126149000D01*
X90003816Y-126149000D01*
X90168228Y-126181703D01*
G37*
G36*
X127248228Y-126181703D02*
G01*
X127403100Y-126245853D01*
X127542481Y-126338985D01*
X127661015Y-126457519D01*
X127754147Y-126596900D01*
X127818297Y-126751772D01*
X127851000Y-126916184D01*
X127851000Y-127083816D01*
X127818297Y-127248228D01*
X127754147Y-127403100D01*
X127661015Y-127542481D01*
X127542481Y-127661015D01*
X127403100Y-127754147D01*
X127248228Y-127818297D01*
X127083816Y-127851000D01*
X126916184Y-127851000D01*
X126751772Y-127818297D01*
X126596900Y-127754147D01*
X126457519Y-127661015D01*
X126338985Y-127542481D01*
X126245853Y-127403100D01*
X126181703Y-127248228D01*
X126149000Y-127083816D01*
X126149000Y-126916184D01*
X126181703Y-126751772D01*
X126245853Y-126596900D01*
X126338985Y-126457519D01*
X126457519Y-126338985D01*
X126596900Y-126245853D01*
X126751772Y-126181703D01*
X126916184Y-126149000D01*
X127083816Y-126149000D01*
X127248228Y-126181703D01*
G37*
G36*
X87628228Y-126181703D02*
G01*
X87783100Y-126245853D01*
X87922481Y-126338985D01*
X88041015Y-126457519D01*
X88134147Y-126596900D01*
X88198297Y-126751772D01*
X88231000Y-126916184D01*
X88231000Y-127083816D01*
X88198297Y-127248228D01*
X88134147Y-127403100D01*
X88041015Y-127542481D01*
X87922481Y-127661015D01*
X87783100Y-127754147D01*
X87628228Y-127818297D01*
X87463816Y-127851000D01*
X87296184Y-127851000D01*
X87131772Y-127818297D01*
X86976900Y-127754147D01*
X86837519Y-127661015D01*
X86718985Y-127542481D01*
X86625853Y-127403100D01*
X86561703Y-127248228D01*
X86529000Y-127083816D01*
X86529000Y-126916184D01*
X86561703Y-126751772D01*
X86625853Y-126596900D01*
X86718985Y-126457519D01*
X86837519Y-126338985D01*
X86976900Y-126245853D01*
X87131772Y-126181703D01*
X87296184Y-126149000D01*
X87463816Y-126149000D01*
X87628228Y-126181703D01*
G37*
G36*
X92708228Y-126181703D02*
G01*
X92863100Y-126245853D01*
X93002481Y-126338985D01*
X93121015Y-126457519D01*
X93214147Y-126596900D01*
X93278297Y-126751772D01*
X93311000Y-126916184D01*
X93311000Y-127083816D01*
X93278297Y-127248228D01*
X93214147Y-127403100D01*
X93121015Y-127542481D01*
X93002481Y-127661015D01*
X92863100Y-127754147D01*
X92708228Y-127818297D01*
X92543816Y-127851000D01*
X92376184Y-127851000D01*
X92211772Y-127818297D01*
X92056900Y-127754147D01*
X91917519Y-127661015D01*
X91798985Y-127542481D01*
X91705853Y-127403100D01*
X91641703Y-127248228D01*
X91609000Y-127083816D01*
X91609000Y-126916184D01*
X91641703Y-126751772D01*
X91705853Y-126596900D01*
X91798985Y-126457519D01*
X91917519Y-126338985D01*
X92056900Y-126245853D01*
X92211772Y-126181703D01*
X92376184Y-126149000D01*
X92543816Y-126149000D01*
X92708228Y-126181703D01*
G37*
G36*
X95248228Y-126181703D02*
G01*
X95403100Y-126245853D01*
X95542481Y-126338985D01*
X95661015Y-126457519D01*
X95754147Y-126596900D01*
X95818297Y-126751772D01*
X95851000Y-126916184D01*
X95851000Y-127083816D01*
X95818297Y-127248228D01*
X95754147Y-127403100D01*
X95661015Y-127542481D01*
X95542481Y-127661015D01*
X95403100Y-127754147D01*
X95248228Y-127818297D01*
X95083816Y-127851000D01*
X94916184Y-127851000D01*
X94751772Y-127818297D01*
X94596900Y-127754147D01*
X94457519Y-127661015D01*
X94338985Y-127542481D01*
X94245853Y-127403100D01*
X94181703Y-127248228D01*
X94149000Y-127083816D01*
X94149000Y-126916184D01*
X94181703Y-126751772D01*
X94245853Y-126596900D01*
X94338985Y-126457519D01*
X94457519Y-126338985D01*
X94596900Y-126245853D01*
X94751772Y-126181703D01*
X94916184Y-126149000D01*
X95083816Y-126149000D01*
X95248228Y-126181703D01*
G37*
G36*
X97788228Y-126181703D02*
G01*
X97943100Y-126245853D01*
X98082481Y-126338985D01*
X98201015Y-126457519D01*
X98294147Y-126596900D01*
X98358297Y-126751772D01*
X98391000Y-126916184D01*
X98391000Y-127083816D01*
X98358297Y-127248228D01*
X98294147Y-127403100D01*
X98201015Y-127542481D01*
X98082481Y-127661015D01*
X97943100Y-127754147D01*
X97788228Y-127818297D01*
X97623816Y-127851000D01*
X97456184Y-127851000D01*
X97291772Y-127818297D01*
X97136900Y-127754147D01*
X96997519Y-127661015D01*
X96878985Y-127542481D01*
X96785853Y-127403100D01*
X96721703Y-127248228D01*
X96689000Y-127083816D01*
X96689000Y-126916184D01*
X96721703Y-126751772D01*
X96785853Y-126596900D01*
X96878985Y-126457519D01*
X96997519Y-126338985D01*
X97136900Y-126245853D01*
X97291772Y-126181703D01*
X97456184Y-126149000D01*
X97623816Y-126149000D01*
X97788228Y-126181703D01*
G37*
G36*
X100328228Y-126181703D02*
G01*
X100483100Y-126245853D01*
X100622481Y-126338985D01*
X100741015Y-126457519D01*
X100834147Y-126596900D01*
X100898297Y-126751772D01*
X100931000Y-126916184D01*
X100931000Y-127083816D01*
X100898297Y-127248228D01*
X100834147Y-127403100D01*
X100741015Y-127542481D01*
X100622481Y-127661015D01*
X100483100Y-127754147D01*
X100328228Y-127818297D01*
X100163816Y-127851000D01*
X99996184Y-127851000D01*
X99831772Y-127818297D01*
X99676900Y-127754147D01*
X99537519Y-127661015D01*
X99418985Y-127542481D01*
X99325853Y-127403100D01*
X99261703Y-127248228D01*
X99229000Y-127083816D01*
X99229000Y-126916184D01*
X99261703Y-126751772D01*
X99325853Y-126596900D01*
X99418985Y-126457519D01*
X99537519Y-126338985D01*
X99676900Y-126245853D01*
X99831772Y-126181703D01*
X99996184Y-126149000D01*
X100163816Y-126149000D01*
X100328228Y-126181703D01*
G37*
G36*
X102868228Y-126181703D02*
G01*
X103023100Y-126245853D01*
X103162481Y-126338985D01*
X103281015Y-126457519D01*
X103374147Y-126596900D01*
X103438297Y-126751772D01*
X103471000Y-126916184D01*
X103471000Y-127083816D01*
X103438297Y-127248228D01*
X103374147Y-127403100D01*
X103281015Y-127542481D01*
X103162481Y-127661015D01*
X103023100Y-127754147D01*
X102868228Y-127818297D01*
X102703816Y-127851000D01*
X102536184Y-127851000D01*
X102371772Y-127818297D01*
X102216900Y-127754147D01*
X102077519Y-127661015D01*
X101958985Y-127542481D01*
X101865853Y-127403100D01*
X101801703Y-127248228D01*
X101769000Y-127083816D01*
X101769000Y-126916184D01*
X101801703Y-126751772D01*
X101865853Y-126596900D01*
X101958985Y-126457519D01*
X102077519Y-126338985D01*
X102216900Y-126245853D01*
X102371772Y-126181703D01*
X102536184Y-126149000D01*
X102703816Y-126149000D01*
X102868228Y-126181703D01*
G37*
G36*
X148356968Y-126253565D02*
G01*
X148395638Y-126265296D01*
X148431277Y-126284346D01*
X148462517Y-126309983D01*
X148488154Y-126341223D01*
X148507204Y-126376862D01*
X148518935Y-126415532D01*
X148523500Y-126461888D01*
X148523500Y-127538112D01*
X148518935Y-127584468D01*
X148507204Y-127623138D01*
X148488154Y-127658777D01*
X148462517Y-127690017D01*
X148431277Y-127715654D01*
X148395638Y-127734704D01*
X148356968Y-127746435D01*
X148310612Y-127751000D01*
X147659388Y-127751000D01*
X147613032Y-127746435D01*
X147574362Y-127734704D01*
X147538723Y-127715654D01*
X147507483Y-127690017D01*
X147481846Y-127658777D01*
X147462796Y-127623138D01*
X147451065Y-127584468D01*
X147446500Y-127538112D01*
X147446500Y-126461888D01*
X147451065Y-126415532D01*
X147462796Y-126376862D01*
X147481846Y-126341223D01*
X147507483Y-126309983D01*
X147538723Y-126284346D01*
X147574362Y-126265296D01*
X147613032Y-126253565D01*
X147659388Y-126249000D01*
X148310612Y-126249000D01*
X148356968Y-126253565D01*
G37*
G36*
X150231968Y-126253565D02*
G01*
X150270638Y-126265296D01*
X150306277Y-126284346D01*
X150337517Y-126309983D01*
X150363154Y-126341223D01*
X150382204Y-126376862D01*
X150393935Y-126415532D01*
X150398500Y-126461888D01*
X150398500Y-127538112D01*
X150393935Y-127584468D01*
X150382204Y-127623138D01*
X150363154Y-127658777D01*
X150337517Y-127690017D01*
X150306277Y-127715654D01*
X150270638Y-127734704D01*
X150231968Y-127746435D01*
X150185612Y-127751000D01*
X149534388Y-127751000D01*
X149488032Y-127746435D01*
X149449362Y-127734704D01*
X149413723Y-127715654D01*
X149382483Y-127690017D01*
X149356846Y-127658777D01*
X149337796Y-127623138D01*
X149326065Y-127584468D01*
X149321500Y-127538112D01*
X149321500Y-126461888D01*
X149326065Y-126415532D01*
X149337796Y-126376862D01*
X149356846Y-126341223D01*
X149382483Y-126309983D01*
X149413723Y-126284346D01*
X149449362Y-126265296D01*
X149488032Y-126253565D01*
X149534388Y-126249000D01*
X150185612Y-126249000D01*
X150231968Y-126253565D01*
G37*
G36*
X142006968Y-126253565D02*
G01*
X142045638Y-126265296D01*
X142081277Y-126284346D01*
X142112517Y-126309983D01*
X142138154Y-126341223D01*
X142157204Y-126376862D01*
X142168935Y-126415532D01*
X142173500Y-126461888D01*
X142173500Y-127538112D01*
X142168935Y-127584468D01*
X142157204Y-127623138D01*
X142138154Y-127658777D01*
X142112517Y-127690017D01*
X142081277Y-127715654D01*
X142045638Y-127734704D01*
X142006968Y-127746435D01*
X141960612Y-127751000D01*
X141309388Y-127751000D01*
X141263032Y-127746435D01*
X141224362Y-127734704D01*
X141188723Y-127715654D01*
X141157483Y-127690017D01*
X141131846Y-127658777D01*
X141112796Y-127623138D01*
X141101065Y-127584468D01*
X141096500Y-127538112D01*
X141096500Y-126461888D01*
X141101065Y-126415532D01*
X141112796Y-126376862D01*
X141131846Y-126341223D01*
X141157483Y-126309983D01*
X141188723Y-126284346D01*
X141224362Y-126265296D01*
X141263032Y-126253565D01*
X141309388Y-126249000D01*
X141960612Y-126249000D01*
X142006968Y-126253565D01*
G37*
G36*
X143881968Y-126253565D02*
G01*
X143920638Y-126265296D01*
X143956277Y-126284346D01*
X143987517Y-126309983D01*
X144013154Y-126341223D01*
X144032204Y-126376862D01*
X144043935Y-126415532D01*
X144048500Y-126461888D01*
X144048500Y-127538112D01*
X144043935Y-127584468D01*
X144032204Y-127623138D01*
X144013154Y-127658777D01*
X143987517Y-127690017D01*
X143956277Y-127715654D01*
X143920638Y-127734704D01*
X143881968Y-127746435D01*
X143835612Y-127751000D01*
X143184388Y-127751000D01*
X143138032Y-127746435D01*
X143099362Y-127734704D01*
X143063723Y-127715654D01*
X143032483Y-127690017D01*
X143006846Y-127658777D01*
X142987796Y-127623138D01*
X142976065Y-127584468D01*
X142971500Y-127538112D01*
X142971500Y-126461888D01*
X142976065Y-126415532D01*
X142987796Y-126376862D01*
X143006846Y-126341223D01*
X143032483Y-126309983D01*
X143063723Y-126284346D01*
X143099362Y-126265296D01*
X143138032Y-126253565D01*
X143184388Y-126249000D01*
X143835612Y-126249000D01*
X143881968Y-126253565D01*
G37*
G36*
X159334468Y-126466065D02*
G01*
X159373138Y-126477796D01*
X159408777Y-126496846D01*
X159440017Y-126522483D01*
X159465654Y-126553723D01*
X159484704Y-126589362D01*
X159496435Y-126628032D01*
X159501000Y-126674388D01*
X159501000Y-127325612D01*
X159496435Y-127371968D01*
X159484704Y-127410638D01*
X159465654Y-127446277D01*
X159440017Y-127477517D01*
X159408777Y-127503154D01*
X159373138Y-127522204D01*
X159334468Y-127533935D01*
X159288112Y-127538500D01*
X158211888Y-127538500D01*
X158165532Y-127533935D01*
X158126862Y-127522204D01*
X158091223Y-127503154D01*
X158059983Y-127477517D01*
X158034346Y-127446277D01*
X158015296Y-127410638D01*
X158003565Y-127371968D01*
X157999000Y-127325612D01*
X157999000Y-126674388D01*
X158003565Y-126628032D01*
X158015296Y-126589362D01*
X158034346Y-126553723D01*
X158059983Y-126522483D01*
X158091223Y-126496846D01*
X158126862Y-126477796D01*
X158165532Y-126466065D01*
X158211888Y-126461500D01*
X159288112Y-126461500D01*
X159334468Y-126466065D01*
G37*
G36*
X135406000Y-123851000D02*
G01*
X132804000Y-123851000D01*
X132804000Y-121749000D01*
X135406000Y-121749000D01*
X135406000Y-123851000D01*
G37*
G36*
X144056000Y-121701000D02*
G01*
X141454000Y-121701000D01*
X141454000Y-119599000D01*
X144056000Y-119599000D01*
X144056000Y-121701000D01*
G37*
G36*
X135406000Y-119551000D02*
G01*
X132804000Y-119551000D01*
X132804000Y-117449000D01*
X135406000Y-117449000D01*
X135406000Y-119551000D01*
G37*
G36*
X154361000Y-118961000D02*
G01*
X152059000Y-118961000D01*
X152059000Y-117259000D01*
X154361000Y-117259000D01*
X154361000Y-118961000D01*
G37*
G36*
X157361000Y-118961000D02*
G01*
X155059000Y-118961000D01*
X155059000Y-117259000D01*
X157361000Y-117259000D01*
X157361000Y-118961000D01*
G37*
G36*
X141839928Y-104426764D02*
G01*
X141861009Y-104433160D01*
X141880445Y-104443548D01*
X141897476Y-104457524D01*
X141911452Y-104474555D01*
X141921840Y-104493991D01*
X141928236Y-104515072D01*
X141931000Y-104543140D01*
X141931000Y-105006860D01*
X141928236Y-105034928D01*
X141921840Y-105056009D01*
X141911452Y-105075445D01*
X141897476Y-105092476D01*
X141880445Y-105106452D01*
X141861009Y-105116840D01*
X141839928Y-105123236D01*
X141811860Y-105126000D01*
X139998140Y-105126000D01*
X139970072Y-105123236D01*
X139948991Y-105116840D01*
X139929555Y-105106452D01*
X139912524Y-105092476D01*
X139898548Y-105075445D01*
X139888160Y-105056009D01*
X139881764Y-105034928D01*
X139879000Y-105006860D01*
X139879000Y-104543140D01*
X139881764Y-104515072D01*
X139888160Y-104493991D01*
X139898548Y-104474555D01*
X139912524Y-104457524D01*
X139929555Y-104443548D01*
X139948991Y-104433160D01*
X139970072Y-104426764D01*
X139998140Y-104424000D01*
X141811860Y-104424000D01*
X141839928Y-104426764D01*
G37*
G36*
X136889928Y-104426764D02*
G01*
X136911009Y-104433160D01*
X136930445Y-104443548D01*
X136947476Y-104457524D01*
X136961452Y-104474555D01*
X136971840Y-104493991D01*
X136978236Y-104515072D01*
X136981000Y-104543140D01*
X136981000Y-105006860D01*
X136978236Y-105034928D01*
X136971840Y-105056009D01*
X136961452Y-105075445D01*
X136947476Y-105092476D01*
X136930445Y-105106452D01*
X136911009Y-105116840D01*
X136889928Y-105123236D01*
X136861860Y-105126000D01*
X135048140Y-105126000D01*
X135020072Y-105123236D01*
X134998991Y-105116840D01*
X134979555Y-105106452D01*
X134962524Y-105092476D01*
X134948548Y-105075445D01*
X134938160Y-105056009D01*
X134931764Y-105034928D01*
X134929000Y-105006860D01*
X134929000Y-104543140D01*
X134931764Y-104515072D01*
X134938160Y-104493991D01*
X134948548Y-104474555D01*
X134962524Y-104457524D01*
X134979555Y-104443548D01*
X134998991Y-104433160D01*
X135020072Y-104426764D01*
X135048140Y-104424000D01*
X136861860Y-104424000D01*
X136889928Y-104426764D01*
G37*
G36*
X141839928Y-103156764D02*
G01*
X141861009Y-103163160D01*
X141880445Y-103173548D01*
X141897476Y-103187524D01*
X141911452Y-103204555D01*
X141921840Y-103223991D01*
X141928236Y-103245072D01*
X141931000Y-103273140D01*
X141931000Y-103736860D01*
X141928236Y-103764928D01*
X141921840Y-103786009D01*
X141911452Y-103805445D01*
X141897476Y-103822476D01*
X141880445Y-103836452D01*
X141861009Y-103846840D01*
X141839928Y-103853236D01*
X141811860Y-103856000D01*
X139998140Y-103856000D01*
X139970072Y-103853236D01*
X139948991Y-103846840D01*
X139929555Y-103836452D01*
X139912524Y-103822476D01*
X139898548Y-103805445D01*
X139888160Y-103786009D01*
X139881764Y-103764928D01*
X139879000Y-103736860D01*
X139879000Y-103273140D01*
X139881764Y-103245072D01*
X139888160Y-103223991D01*
X139898548Y-103204555D01*
X139912524Y-103187524D01*
X139929555Y-103173548D01*
X139948991Y-103163160D01*
X139970072Y-103156764D01*
X139998140Y-103154000D01*
X141811860Y-103154000D01*
X141839928Y-103156764D01*
G37*
G36*
X136889928Y-103156764D02*
G01*
X136911009Y-103163160D01*
X136930445Y-103173548D01*
X136947476Y-103187524D01*
X136961452Y-103204555D01*
X136971840Y-103223991D01*
X136978236Y-103245072D01*
X136981000Y-103273140D01*
X136981000Y-103736860D01*
X136978236Y-103764928D01*
X136971840Y-103786009D01*
X136961452Y-103805445D01*
X136947476Y-103822476D01*
X136930445Y-103836452D01*
X136911009Y-103846840D01*
X136889928Y-103853236D01*
X136861860Y-103856000D01*
X135048140Y-103856000D01*
X135020072Y-103853236D01*
X134998991Y-103846840D01*
X134979555Y-103836452D01*
X134962524Y-103822476D01*
X134948548Y-103805445D01*
X134938160Y-103786009D01*
X134931764Y-103764928D01*
X134929000Y-103736860D01*
X134929000Y-103273140D01*
X134931764Y-103245072D01*
X134938160Y-103223991D01*
X134948548Y-103204555D01*
X134962524Y-103187524D01*
X134979555Y-103173548D01*
X134998991Y-103163160D01*
X135020072Y-103156764D01*
X135048140Y-103154000D01*
X136861860Y-103154000D01*
X136889928Y-103156764D01*
G37*
G36*
X136889928Y-101886764D02*
G01*
X136911009Y-101893160D01*
X136930445Y-101903548D01*
X136947476Y-101917524D01*
X136961452Y-101934555D01*
X136971840Y-101953991D01*
X136978236Y-101975072D01*
X136981000Y-102003140D01*
X136981000Y-102466860D01*
X136978236Y-102494928D01*
X136971840Y-102516009D01*
X136961452Y-102535445D01*
X136947476Y-102552476D01*
X136930445Y-102566452D01*
X136911009Y-102576840D01*
X136889928Y-102583236D01*
X136861860Y-102586000D01*
X135048140Y-102586000D01*
X135020072Y-102583236D01*
X134998991Y-102576840D01*
X134979555Y-102566452D01*
X134962524Y-102552476D01*
X134948548Y-102535445D01*
X134938160Y-102516009D01*
X134931764Y-102494928D01*
X134929000Y-102466860D01*
X134929000Y-102003140D01*
X134931764Y-101975072D01*
X134938160Y-101953991D01*
X134948548Y-101934555D01*
X134962524Y-101917524D01*
X134979555Y-101903548D01*
X134998991Y-101893160D01*
X135020072Y-101886764D01*
X135048140Y-101884000D01*
X136861860Y-101884000D01*
X136889928Y-101886764D01*
G37*
G36*
X141839928Y-101886764D02*
G01*
X141861009Y-101893160D01*
X141880445Y-101903548D01*
X141897476Y-101917524D01*
X141911452Y-101934555D01*
X141921840Y-101953991D01*
X141928236Y-101975072D01*
X141931000Y-102003140D01*
X141931000Y-102466860D01*
X141928236Y-102494928D01*
X141921840Y-102516009D01*
X141911452Y-102535445D01*
X141897476Y-102552476D01*
X141880445Y-102566452D01*
X141861009Y-102576840D01*
X141839928Y-102583236D01*
X141811860Y-102586000D01*
X139998140Y-102586000D01*
X139970072Y-102583236D01*
X139948991Y-102576840D01*
X139929555Y-102566452D01*
X139912524Y-102552476D01*
X139898548Y-102535445D01*
X139888160Y-102516009D01*
X139881764Y-102494928D01*
X139879000Y-102466860D01*
X139879000Y-102003140D01*
X139881764Y-101975072D01*
X139888160Y-101953991D01*
X139898548Y-101934555D01*
X139912524Y-101917524D01*
X139929555Y-101903548D01*
X139948991Y-101893160D01*
X139970072Y-101886764D01*
X139998140Y-101884000D01*
X141811860Y-101884000D01*
X141839928Y-101886764D01*
G37*
G36*
X136889928Y-100616764D02*
G01*
X136911009Y-100623160D01*
X136930445Y-100633548D01*
X136947476Y-100647524D01*
X136961452Y-100664555D01*
X136971840Y-100683991D01*
X136978236Y-100705072D01*
X136981000Y-100733140D01*
X136981000Y-101196860D01*
X136978236Y-101224928D01*
X136971840Y-101246009D01*
X136961452Y-101265445D01*
X136947476Y-101282476D01*
X136930445Y-101296452D01*
X136911009Y-101306840D01*
X136889928Y-101313236D01*
X136861860Y-101316000D01*
X135048140Y-101316000D01*
X135020072Y-101313236D01*
X134998991Y-101306840D01*
X134979555Y-101296452D01*
X134962524Y-101282476D01*
X134948548Y-101265445D01*
X134938160Y-101246009D01*
X134931764Y-101224928D01*
X134929000Y-101196860D01*
X134929000Y-100733140D01*
X134931764Y-100705072D01*
X134938160Y-100683991D01*
X134948548Y-100664555D01*
X134962524Y-100647524D01*
X134979555Y-100633548D01*
X134998991Y-100623160D01*
X135020072Y-100616764D01*
X135048140Y-100614000D01*
X136861860Y-100614000D01*
X136889928Y-100616764D01*
G37*
G36*
X141839928Y-100616764D02*
G01*
X141861009Y-100623160D01*
X141880445Y-100633548D01*
X141897476Y-100647524D01*
X141911452Y-100664555D01*
X141921840Y-100683991D01*
X141928236Y-100705072D01*
X141931000Y-100733140D01*
X141931000Y-101196860D01*
X141928236Y-101224928D01*
X141921840Y-101246009D01*
X141911452Y-101265445D01*
X141897476Y-101282476D01*
X141880445Y-101296452D01*
X141861009Y-101306840D01*
X141839928Y-101313236D01*
X141811860Y-101316000D01*
X139998140Y-101316000D01*
X139970072Y-101313236D01*
X139948991Y-101306840D01*
X139929555Y-101296452D01*
X139912524Y-101282476D01*
X139898548Y-101265445D01*
X139888160Y-101246009D01*
X139881764Y-101224928D01*
X139879000Y-101196860D01*
X139879000Y-100733140D01*
X139881764Y-100705072D01*
X139888160Y-100683991D01*
X139898548Y-100664555D01*
X139912524Y-100647524D01*
X139929555Y-100633548D01*
X139948991Y-100623160D01*
X139970072Y-100616764D01*
X139998140Y-100614000D01*
X141811860Y-100614000D01*
X141839928Y-100616764D01*
G37*
G36*
X158261000Y-91221000D02*
G01*
X154159000Y-91221000D01*
X154159000Y-89119000D01*
X158261000Y-89119000D01*
X158261000Y-91221000D01*
G37*
G36*
X156963097Y-83124069D02*
G01*
X157066032Y-83134207D01*
X157264146Y-83194305D01*
X157264149Y-83194306D01*
X157360975Y-83246061D01*
X157446729Y-83291897D01*
X157606765Y-83423235D01*
X157738103Y-83583271D01*
X157783939Y-83669025D01*
X157835694Y-83765851D01*
X157835695Y-83765854D01*
X157895793Y-83963968D01*
X157916085Y-84170000D01*
X157895793Y-84376032D01*
X157856146Y-84506728D01*
X157835694Y-84574149D01*
X157786189Y-84666765D01*
X157738103Y-84756729D01*
X157606765Y-84916765D01*
X157446729Y-85048103D01*
X157360975Y-85093939D01*
X157264149Y-85145694D01*
X157264146Y-85145695D01*
X157066032Y-85205793D01*
X156963097Y-85215931D01*
X156911631Y-85221000D01*
X155508369Y-85221000D01*
X155456903Y-85215931D01*
X155353968Y-85205793D01*
X155155854Y-85145695D01*
X155155851Y-85145694D01*
X155059025Y-85093939D01*
X154973271Y-85048103D01*
X154813235Y-84916765D01*
X154681897Y-84756729D01*
X154633811Y-84666765D01*
X154584306Y-84574149D01*
X154563854Y-84506728D01*
X154524207Y-84376032D01*
X154503915Y-84170000D01*
X154524207Y-83963968D01*
X154584305Y-83765854D01*
X154584306Y-83765851D01*
X154636061Y-83669025D01*
X154681897Y-83583271D01*
X154813235Y-83423235D01*
X154973271Y-83291897D01*
X155059025Y-83246061D01*
X155155851Y-83194306D01*
X155155854Y-83194305D01*
X155353968Y-83134207D01*
X155456903Y-83124069D01*
X155508369Y-83119000D01*
X156911631Y-83119000D01*
X156963097Y-83124069D01*
G37*
G36*
X160916032Y-81384207D02*
G01*
X161114146Y-81444305D01*
X161114149Y-81444306D01*
X161210975Y-81496061D01*
X161296729Y-81541897D01*
X161456765Y-81673235D01*
X161588103Y-81833271D01*
X161633939Y-81919025D01*
X161685694Y-82015851D01*
X161685695Y-82015854D01*
X161745793Y-82213968D01*
X161761000Y-82368370D01*
X161761000Y-83971630D01*
X161745793Y-84126032D01*
X161732455Y-84170000D01*
X161685694Y-84324149D01*
X161657963Y-84376030D01*
X161588103Y-84506729D01*
X161456765Y-84666765D01*
X161296729Y-84798103D01*
X161180030Y-84860479D01*
X161114148Y-84895694D01*
X161114145Y-84895695D01*
X160916031Y-84955793D01*
X160710000Y-84976085D01*
X160503968Y-84955793D01*
X160305854Y-84895695D01*
X160305851Y-84895694D01*
X160209025Y-84843939D01*
X160123271Y-84798103D01*
X159963235Y-84666765D01*
X159831897Y-84506729D01*
X159734307Y-84324149D01*
X159734306Y-84324148D01*
X159734305Y-84324145D01*
X159674207Y-84126031D01*
X159659000Y-83971629D01*
X159659000Y-82368369D01*
X159674207Y-82213967D01*
X159734305Y-82015854D01*
X159797904Y-81896870D01*
X159831898Y-81833271D01*
X159963236Y-81673235D01*
X160123272Y-81541897D01*
X160209026Y-81496061D01*
X160305852Y-81444306D01*
X160305855Y-81444305D01*
X160503969Y-81384207D01*
X160710000Y-81363915D01*
X160916032Y-81384207D01*
G37*
G36*
X151916032Y-81384207D02*
G01*
X152114146Y-81444305D01*
X152114149Y-81444306D01*
X152210975Y-81496061D01*
X152296729Y-81541897D01*
X152456765Y-81673235D01*
X152588103Y-81833271D01*
X152633939Y-81919025D01*
X152685694Y-82015851D01*
X152685695Y-82015854D01*
X152745793Y-82213968D01*
X152761000Y-82368370D01*
X152761000Y-83971630D01*
X152745793Y-84126032D01*
X152732455Y-84170000D01*
X152685694Y-84324149D01*
X152657963Y-84376030D01*
X152588103Y-84506729D01*
X152456765Y-84666765D01*
X152296729Y-84798103D01*
X152180030Y-84860479D01*
X152114148Y-84895694D01*
X152114145Y-84895695D01*
X151916031Y-84955793D01*
X151710000Y-84976085D01*
X151503968Y-84955793D01*
X151305854Y-84895695D01*
X151305851Y-84895694D01*
X151209025Y-84843939D01*
X151123271Y-84798103D01*
X150963235Y-84666765D01*
X150831897Y-84506729D01*
X150734307Y-84324149D01*
X150734306Y-84324148D01*
X150734305Y-84324145D01*
X150674207Y-84126031D01*
X150659000Y-83971629D01*
X150659000Y-82368369D01*
X150674207Y-82213967D01*
X150734305Y-82015854D01*
X150797904Y-81896870D01*
X150831898Y-81833271D01*
X150963236Y-81673235D01*
X151123272Y-81541897D01*
X151209026Y-81496061D01*
X151305852Y-81444306D01*
X151305855Y-81444305D01*
X151503969Y-81384207D01*
X151710000Y-81363915D01*
X151916032Y-81384207D01*
G37*
G36*
X156458228Y-80351703D02*
G01*
X156613100Y-80415853D01*
X156752481Y-80508985D01*
X156871015Y-80627519D01*
X156964147Y-80766900D01*
X157028297Y-80921772D01*
X157061000Y-81086184D01*
X157061000Y-81253816D01*
X157028297Y-81418228D01*
X156964147Y-81573100D01*
X156871015Y-81712481D01*
X156752481Y-81831015D01*
X156613100Y-81924147D01*
X156458228Y-81988297D01*
X156293816Y-82021000D01*
X156126184Y-82021000D01*
X155961772Y-81988297D01*
X155806900Y-81924147D01*
X155667519Y-81831015D01*
X155548985Y-81712481D01*
X155455853Y-81573100D01*
X155391703Y-81418228D01*
X155359000Y-81253816D01*
X155359000Y-81086184D01*
X155391703Y-80921772D01*
X155455853Y-80766900D01*
X155548985Y-80627519D01*
X155667519Y-80508985D01*
X155806900Y-80415853D01*
X155961772Y-80351703D01*
X156126184Y-80319000D01*
X156293816Y-80319000D01*
X156458228Y-80351703D01*
G37*
G36*
X146986822Y-77376313D02*
G01*
X147147241Y-77424976D01*
X147295077Y-77503995D01*
X147424659Y-77610341D01*
X147531004Y-77739922D01*
X147531005Y-77739924D01*
X147610024Y-77887758D01*
X147658687Y-78048177D01*
X147671000Y-78173196D01*
X147671000Y-80656804D01*
X147658687Y-80781823D01*
X147610024Y-80942242D01*
X147539114Y-81074906D01*
X147531004Y-81090078D01*
X147424659Y-81219659D01*
X147295078Y-81326004D01*
X147295076Y-81326005D01*
X147147242Y-81405024D01*
X146986823Y-81453687D01*
X146820000Y-81470117D01*
X146653178Y-81453687D01*
X146492759Y-81405024D01*
X146344925Y-81326005D01*
X146344923Y-81326004D01*
X146215342Y-81219659D01*
X146108997Y-81090078D01*
X146100887Y-81074906D01*
X146029977Y-80942242D01*
X145981314Y-80781823D01*
X145969001Y-80656804D01*
X145969000Y-78173197D01*
X145981313Y-78048178D01*
X146021409Y-77916000D01*
X146029975Y-77887762D01*
X146029976Y-77887759D01*
X146108995Y-77739923D01*
X146215341Y-77610341D01*
X146344922Y-77503996D01*
X146360094Y-77495886D01*
X146492758Y-77424976D01*
X146653177Y-77376313D01*
X146820000Y-77359883D01*
X146986822Y-77376313D01*
G37*
G36*
X135286822Y-77376313D02*
G01*
X135447241Y-77424976D01*
X135595077Y-77503995D01*
X135724659Y-77610341D01*
X135831004Y-77739922D01*
X135831005Y-77739924D01*
X135910024Y-77887758D01*
X135958687Y-78048177D01*
X135971000Y-78173196D01*
X135971000Y-80656804D01*
X135958687Y-80781823D01*
X135910024Y-80942242D01*
X135839114Y-81074906D01*
X135831004Y-81090078D01*
X135724659Y-81219659D01*
X135595078Y-81326004D01*
X135595076Y-81326005D01*
X135447242Y-81405024D01*
X135286823Y-81453687D01*
X135120000Y-81470117D01*
X134953178Y-81453687D01*
X134792759Y-81405024D01*
X134644925Y-81326005D01*
X134644923Y-81326004D01*
X134515342Y-81219659D01*
X134408997Y-81090078D01*
X134400887Y-81074906D01*
X134329977Y-80942242D01*
X134281314Y-80781823D01*
X134269001Y-80656804D01*
X134269000Y-78173197D01*
X134281313Y-78048178D01*
X134321409Y-77916000D01*
X134329975Y-77887762D01*
X134329976Y-77887759D01*
X134408995Y-77739923D01*
X134515341Y-77610341D01*
X134644922Y-77503996D01*
X134660094Y-77495886D01*
X134792758Y-77424976D01*
X134953177Y-77376313D01*
X135120000Y-77359883D01*
X135286822Y-77376313D01*
G37*
G36*
X138828537Y-78823815D02*
G01*
X138895305Y-78837096D01*
X138927340Y-78850365D01*
X139004680Y-78882400D01*
X139103115Y-78948173D01*
X139186827Y-79031885D01*
X139252600Y-79130320D01*
X139297904Y-79239696D01*
X139321000Y-79355805D01*
X139321000Y-79474195D01*
X139297904Y-79590304D01*
X139252600Y-79699680D01*
X139186827Y-79798115D01*
X139103115Y-79881827D01*
X139004680Y-79947600D01*
X138927340Y-79979635D01*
X138895305Y-79992904D01*
X138856601Y-80000603D01*
X138779195Y-80016000D01*
X138660805Y-80016000D01*
X138583399Y-80000603D01*
X138544695Y-79992904D01*
X138512660Y-79979635D01*
X138435320Y-79947600D01*
X138336885Y-79881827D01*
X138253173Y-79798115D01*
X138187400Y-79699680D01*
X138142096Y-79590304D01*
X138119000Y-79474195D01*
X138119000Y-79355805D01*
X138142096Y-79239696D01*
X138187400Y-79130320D01*
X138253173Y-79031885D01*
X138336885Y-78948173D01*
X138435320Y-78882400D01*
X138512660Y-78850365D01*
X138544695Y-78837096D01*
X138611463Y-78823815D01*
X138660805Y-78814000D01*
X138779195Y-78814000D01*
X138828537Y-78823815D01*
G37*
G36*
X143328537Y-78823815D02*
G01*
X143395305Y-78837096D01*
X143427340Y-78850365D01*
X143504680Y-78882400D01*
X143603115Y-78948173D01*
X143686827Y-79031885D01*
X143752600Y-79130320D01*
X143797904Y-79239696D01*
X143821000Y-79355805D01*
X143821000Y-79474195D01*
X143797904Y-79590304D01*
X143752600Y-79699680D01*
X143686827Y-79798115D01*
X143603115Y-79881827D01*
X143504680Y-79947600D01*
X143427340Y-79979635D01*
X143395305Y-79992904D01*
X143356601Y-80000603D01*
X143279195Y-80016000D01*
X143160805Y-80016000D01*
X143083399Y-80000603D01*
X143044695Y-79992904D01*
X143012660Y-79979635D01*
X142935320Y-79947600D01*
X142836885Y-79881827D01*
X142753173Y-79798115D01*
X142687400Y-79699680D01*
X142642096Y-79590304D01*
X142619000Y-79474195D01*
X142619000Y-79355805D01*
X142642096Y-79239696D01*
X142687400Y-79130320D01*
X142753173Y-79031885D01*
X142836885Y-78948173D01*
X142935320Y-78882400D01*
X143012660Y-78850365D01*
X143044695Y-78837096D01*
X143111463Y-78823815D01*
X143160805Y-78814000D01*
X143279195Y-78814000D01*
X143328537Y-78823815D01*
G37*
G36*
X117088228Y-77921703D02*
G01*
X117243100Y-77985853D01*
X117382481Y-78078985D01*
X117501015Y-78197519D01*
X117594147Y-78336900D01*
X117658297Y-78491772D01*
X117691000Y-78656184D01*
X117691000Y-78823816D01*
X117658297Y-78988228D01*
X117594147Y-79143100D01*
X117501015Y-79282481D01*
X117382481Y-79401015D01*
X117243100Y-79494147D01*
X117088228Y-79558297D01*
X116923816Y-79591000D01*
X116756184Y-79591000D01*
X116591772Y-79558297D01*
X116436900Y-79494147D01*
X116297519Y-79401015D01*
X116178985Y-79282481D01*
X116085853Y-79143100D01*
X116021703Y-78988228D01*
X115989000Y-78823816D01*
X115989000Y-78656184D01*
X116021703Y-78491772D01*
X116085853Y-78336900D01*
X116178985Y-78197519D01*
X116297519Y-78078985D01*
X116436900Y-77985853D01*
X116591772Y-77921703D01*
X116756184Y-77889000D01*
X116923816Y-77889000D01*
X117088228Y-77921703D01*
G37*
G36*
X94228228Y-77921703D02*
G01*
X94383100Y-77985853D01*
X94522481Y-78078985D01*
X94641015Y-78197519D01*
X94734147Y-78336900D01*
X94798297Y-78491772D01*
X94831000Y-78656184D01*
X94831000Y-78823816D01*
X94798297Y-78988228D01*
X94734147Y-79143100D01*
X94641015Y-79282481D01*
X94522481Y-79401015D01*
X94383100Y-79494147D01*
X94228228Y-79558297D01*
X94063816Y-79591000D01*
X93896184Y-79591000D01*
X93731772Y-79558297D01*
X93576900Y-79494147D01*
X93437519Y-79401015D01*
X93318985Y-79282481D01*
X93225853Y-79143100D01*
X93161703Y-78988228D01*
X93129000Y-78823816D01*
X93129000Y-78656184D01*
X93161703Y-78491772D01*
X93225853Y-78336900D01*
X93318985Y-78197519D01*
X93437519Y-78078985D01*
X93576900Y-77985853D01*
X93731772Y-77921703D01*
X93896184Y-77889000D01*
X94063816Y-77889000D01*
X94228228Y-77921703D01*
G37*
G36*
X96768228Y-77921703D02*
G01*
X96923100Y-77985853D01*
X97062481Y-78078985D01*
X97181015Y-78197519D01*
X97274147Y-78336900D01*
X97338297Y-78491772D01*
X97371000Y-78656184D01*
X97371000Y-78823816D01*
X97338297Y-78988228D01*
X97274147Y-79143100D01*
X97181015Y-79282481D01*
X97062481Y-79401015D01*
X96923100Y-79494147D01*
X96768228Y-79558297D01*
X96603816Y-79591000D01*
X96436184Y-79591000D01*
X96271772Y-79558297D01*
X96116900Y-79494147D01*
X95977519Y-79401015D01*
X95858985Y-79282481D01*
X95765853Y-79143100D01*
X95701703Y-78988228D01*
X95669000Y-78823816D01*
X95669000Y-78656184D01*
X95701703Y-78491772D01*
X95765853Y-78336900D01*
X95858985Y-78197519D01*
X95977519Y-78078985D01*
X96116900Y-77985853D01*
X96271772Y-77921703D01*
X96436184Y-77889000D01*
X96603816Y-77889000D01*
X96768228Y-77921703D01*
G37*
G36*
X99308228Y-77921703D02*
G01*
X99463100Y-77985853D01*
X99602481Y-78078985D01*
X99721015Y-78197519D01*
X99814147Y-78336900D01*
X99878297Y-78491772D01*
X99911000Y-78656184D01*
X99911000Y-78823816D01*
X99878297Y-78988228D01*
X99814147Y-79143100D01*
X99721015Y-79282481D01*
X99602481Y-79401015D01*
X99463100Y-79494147D01*
X99308228Y-79558297D01*
X99143816Y-79591000D01*
X98976184Y-79591000D01*
X98811772Y-79558297D01*
X98656900Y-79494147D01*
X98517519Y-79401015D01*
X98398985Y-79282481D01*
X98305853Y-79143100D01*
X98241703Y-78988228D01*
X98209000Y-78823816D01*
X98209000Y-78656184D01*
X98241703Y-78491772D01*
X98305853Y-78336900D01*
X98398985Y-78197519D01*
X98517519Y-78078985D01*
X98656900Y-77985853D01*
X98811772Y-77921703D01*
X98976184Y-77889000D01*
X99143816Y-77889000D01*
X99308228Y-77921703D01*
G37*
G36*
X101848228Y-77921703D02*
G01*
X102003100Y-77985853D01*
X102142481Y-78078985D01*
X102261015Y-78197519D01*
X102354147Y-78336900D01*
X102418297Y-78491772D01*
X102451000Y-78656184D01*
X102451000Y-78823816D01*
X102418297Y-78988228D01*
X102354147Y-79143100D01*
X102261015Y-79282481D01*
X102142481Y-79401015D01*
X102003100Y-79494147D01*
X101848228Y-79558297D01*
X101683816Y-79591000D01*
X101516184Y-79591000D01*
X101351772Y-79558297D01*
X101196900Y-79494147D01*
X101057519Y-79401015D01*
X100938985Y-79282481D01*
X100845853Y-79143100D01*
X100781703Y-78988228D01*
X100749000Y-78823816D01*
X100749000Y-78656184D01*
X100781703Y-78491772D01*
X100845853Y-78336900D01*
X100938985Y-78197519D01*
X101057519Y-78078985D01*
X101196900Y-77985853D01*
X101351772Y-77921703D01*
X101516184Y-77889000D01*
X101683816Y-77889000D01*
X101848228Y-77921703D01*
G37*
G36*
X106928228Y-77921703D02*
G01*
X107083100Y-77985853D01*
X107222481Y-78078985D01*
X107341015Y-78197519D01*
X107434147Y-78336900D01*
X107498297Y-78491772D01*
X107531000Y-78656184D01*
X107531000Y-78823816D01*
X107498297Y-78988228D01*
X107434147Y-79143100D01*
X107341015Y-79282481D01*
X107222481Y-79401015D01*
X107083100Y-79494147D01*
X106928228Y-79558297D01*
X106763816Y-79591000D01*
X106596184Y-79591000D01*
X106431772Y-79558297D01*
X106276900Y-79494147D01*
X106137519Y-79401015D01*
X106018985Y-79282481D01*
X105925853Y-79143100D01*
X105861703Y-78988228D01*
X105829000Y-78823816D01*
X105829000Y-78656184D01*
X105861703Y-78491772D01*
X105925853Y-78336900D01*
X106018985Y-78197519D01*
X106137519Y-78078985D01*
X106276900Y-77985853D01*
X106431772Y-77921703D01*
X106596184Y-77889000D01*
X106763816Y-77889000D01*
X106928228Y-77921703D01*
G37*
G36*
X104388228Y-77921703D02*
G01*
X104543100Y-77985853D01*
X104682481Y-78078985D01*
X104801015Y-78197519D01*
X104894147Y-78336900D01*
X104958297Y-78491772D01*
X104991000Y-78656184D01*
X104991000Y-78823816D01*
X104958297Y-78988228D01*
X104894147Y-79143100D01*
X104801015Y-79282481D01*
X104682481Y-79401015D01*
X104543100Y-79494147D01*
X104388228Y-79558297D01*
X104223816Y-79591000D01*
X104056184Y-79591000D01*
X103891772Y-79558297D01*
X103736900Y-79494147D01*
X103597519Y-79401015D01*
X103478985Y-79282481D01*
X103385853Y-79143100D01*
X103321703Y-78988228D01*
X103289000Y-78823816D01*
X103289000Y-78656184D01*
X103321703Y-78491772D01*
X103385853Y-78336900D01*
X103478985Y-78197519D01*
X103597519Y-78078985D01*
X103736900Y-77985853D01*
X103891772Y-77921703D01*
X104056184Y-77889000D01*
X104223816Y-77889000D01*
X104388228Y-77921703D01*
G37*
G36*
X109468228Y-77921703D02*
G01*
X109623100Y-77985853D01*
X109762481Y-78078985D01*
X109881015Y-78197519D01*
X109974147Y-78336900D01*
X110038297Y-78491772D01*
X110071000Y-78656184D01*
X110071000Y-78823816D01*
X110038297Y-78988228D01*
X109974147Y-79143100D01*
X109881015Y-79282481D01*
X109762481Y-79401015D01*
X109623100Y-79494147D01*
X109468228Y-79558297D01*
X109303816Y-79591000D01*
X109136184Y-79591000D01*
X108971772Y-79558297D01*
X108816900Y-79494147D01*
X108677519Y-79401015D01*
X108558985Y-79282481D01*
X108465853Y-79143100D01*
X108401703Y-78988228D01*
X108369000Y-78823816D01*
X108369000Y-78656184D01*
X108401703Y-78491772D01*
X108465853Y-78336900D01*
X108558985Y-78197519D01*
X108677519Y-78078985D01*
X108816900Y-77985853D01*
X108971772Y-77921703D01*
X109136184Y-77889000D01*
X109303816Y-77889000D01*
X109468228Y-77921703D01*
G37*
G36*
X114548228Y-77921703D02*
G01*
X114703100Y-77985853D01*
X114842481Y-78078985D01*
X114961015Y-78197519D01*
X115054147Y-78336900D01*
X115118297Y-78491772D01*
X115151000Y-78656184D01*
X115151000Y-78823816D01*
X115118297Y-78988228D01*
X115054147Y-79143100D01*
X114961015Y-79282481D01*
X114842481Y-79401015D01*
X114703100Y-79494147D01*
X114548228Y-79558297D01*
X114383816Y-79591000D01*
X114216184Y-79591000D01*
X114051772Y-79558297D01*
X113896900Y-79494147D01*
X113757519Y-79401015D01*
X113638985Y-79282481D01*
X113545853Y-79143100D01*
X113481703Y-78988228D01*
X113449000Y-78823816D01*
X113449000Y-78656184D01*
X113481703Y-78491772D01*
X113545853Y-78336900D01*
X113638985Y-78197519D01*
X113757519Y-78078985D01*
X113896900Y-77985853D01*
X114051772Y-77921703D01*
X114216184Y-77889000D01*
X114383816Y-77889000D01*
X114548228Y-77921703D01*
G37*
G36*
X119628228Y-77921703D02*
G01*
X119783100Y-77985853D01*
X119922481Y-78078985D01*
X120041015Y-78197519D01*
X120134147Y-78336900D01*
X120198297Y-78491772D01*
X120231000Y-78656184D01*
X120231000Y-78823816D01*
X120198297Y-78988228D01*
X120134147Y-79143100D01*
X120041015Y-79282481D01*
X119922481Y-79401015D01*
X119783100Y-79494147D01*
X119628228Y-79558297D01*
X119463816Y-79591000D01*
X119296184Y-79591000D01*
X119131772Y-79558297D01*
X118976900Y-79494147D01*
X118837519Y-79401015D01*
X118718985Y-79282481D01*
X118625853Y-79143100D01*
X118561703Y-78988228D01*
X118529000Y-78823816D01*
X118529000Y-78656184D01*
X118561703Y-78491772D01*
X118625853Y-78336900D01*
X118718985Y-78197519D01*
X118837519Y-78078985D01*
X118976900Y-77985853D01*
X119131772Y-77921703D01*
X119296184Y-77889000D01*
X119463816Y-77889000D01*
X119628228Y-77921703D01*
G37*
G36*
X122168228Y-77921703D02*
G01*
X122323100Y-77985853D01*
X122462481Y-78078985D01*
X122581015Y-78197519D01*
X122674147Y-78336900D01*
X122738297Y-78491772D01*
X122771000Y-78656184D01*
X122771000Y-78823816D01*
X122738297Y-78988228D01*
X122674147Y-79143100D01*
X122581015Y-79282481D01*
X122462481Y-79401015D01*
X122323100Y-79494147D01*
X122168228Y-79558297D01*
X122003816Y-79591000D01*
X121836184Y-79591000D01*
X121671772Y-79558297D01*
X121516900Y-79494147D01*
X121377519Y-79401015D01*
X121258985Y-79282481D01*
X121165853Y-79143100D01*
X121101703Y-78988228D01*
X121069000Y-78823816D01*
X121069000Y-78656184D01*
X121101703Y-78491772D01*
X121165853Y-78336900D01*
X121258985Y-78197519D01*
X121377519Y-78078985D01*
X121516900Y-77985853D01*
X121671772Y-77921703D01*
X121836184Y-77889000D01*
X122003816Y-77889000D01*
X122168228Y-77921703D01*
G37*
G36*
X124708228Y-77921703D02*
G01*
X124863100Y-77985853D01*
X125002481Y-78078985D01*
X125121015Y-78197519D01*
X125214147Y-78336900D01*
X125278297Y-78491772D01*
X125311000Y-78656184D01*
X125311000Y-78823816D01*
X125278297Y-78988228D01*
X125214147Y-79143100D01*
X125121015Y-79282481D01*
X125002481Y-79401015D01*
X124863100Y-79494147D01*
X124708228Y-79558297D01*
X124543816Y-79591000D01*
X124376184Y-79591000D01*
X124211772Y-79558297D01*
X124056900Y-79494147D01*
X123917519Y-79401015D01*
X123798985Y-79282481D01*
X123705853Y-79143100D01*
X123641703Y-78988228D01*
X123609000Y-78823816D01*
X123609000Y-78656184D01*
X123641703Y-78491772D01*
X123705853Y-78336900D01*
X123798985Y-78197519D01*
X123917519Y-78078985D01*
X124056900Y-77985853D01*
X124211772Y-77921703D01*
X124376184Y-77889000D01*
X124543816Y-77889000D01*
X124708228Y-77921703D01*
G37*
G36*
X127248228Y-77921703D02*
G01*
X127403100Y-77985853D01*
X127542481Y-78078985D01*
X127661015Y-78197519D01*
X127754147Y-78336900D01*
X127818297Y-78491772D01*
X127851000Y-78656184D01*
X127851000Y-78823816D01*
X127818297Y-78988228D01*
X127754147Y-79143100D01*
X127661015Y-79282481D01*
X127542481Y-79401015D01*
X127403100Y-79494147D01*
X127248228Y-79558297D01*
X127083816Y-79591000D01*
X126916184Y-79591000D01*
X126751772Y-79558297D01*
X126596900Y-79494147D01*
X126457519Y-79401015D01*
X126338985Y-79282481D01*
X126245853Y-79143100D01*
X126181703Y-78988228D01*
X126149000Y-78823816D01*
X126149000Y-78656184D01*
X126181703Y-78491772D01*
X126245853Y-78336900D01*
X126338985Y-78197519D01*
X126457519Y-78078985D01*
X126596900Y-77985853D01*
X126751772Y-77921703D01*
X126916184Y-77889000D01*
X127083816Y-77889000D01*
X127248228Y-77921703D01*
G37*
G36*
X92291000Y-79591000D02*
G01*
X90589000Y-79591000D01*
X90589000Y-77889000D01*
X92291000Y-77889000D01*
X92291000Y-79591000D01*
G37*
G36*
X145371000Y-77916000D02*
G01*
X136569000Y-77916000D01*
X136569000Y-76014000D01*
X145371000Y-76014000D01*
X145371000Y-77916000D01*
G37*
M02*
